<svg width="346" height="367" viewBox="0 0 346 367" fill="none" xmlns="http://www.w3.org/2000/svg">
<g style="mix-blend-mode:screen" opacity="0.8">
<path d="M1 171.108C24.0624 169.398 84.6228 176.085 149.599 207.779C212.6 238.511 275.889 335.519 345.57 335.519" stroke="url(#paint0_linear_848_122171)"/>
<path d="M1 167.247C24.0624 165.537 86.0698 170.477 149.599 203.918C199.66 230.27 273.727 323.747 344.931 322.016" stroke="url(#paint1_linear_848_122171)"/>
<path d="M1 163.385C24.0624 161.675 89.2201 166.507 149.599 200.056C200.668 228.432 266.695 310.742 337.899 309.011" stroke="url(#paint2_linear_848_122171)"/>
<path d="M1 159.526C24.0624 157.816 86.0698 162.756 149.599 196.197C199.66 222.549 265.316 344.016 343.652 349.515" stroke="url(#paint3_linear_848_122171)"/>
<path d="M1 155.664C24.0624 153.954 86.0698 158.894 149.599 192.335C199.66 218.687 261.186 352.015 330.227 357.516" stroke="url(#paint4_linear_848_122171)"/>
<path d="M1 151.805C24.0624 150.095 86.0698 155.036 149.599 188.476C199.66 214.828 250.318 357.013 318.72 364.014L342.374 366.014" stroke="url(#paint5_linear_848_122171)"/>
<path d="M1 175.988C24.0624 177.698 84.8037 171.237 149.599 139.317C203.011 113.004 273.332 37.5011 340.456 33.501" stroke="url(#paint6_linear_848_122171)"/>
<path d="M1 179.856C24.0624 181.566 86.0698 176.626 149.599 143.185C199.66 116.834 263.743 50.5023 343.013 43.002" stroke="url(#paint7_linear_848_122171)"/>
<path d="M1 183.717C24.0624 185.427 86.0698 180.486 149.599 147.045C199.66 120.694 237.532 72.0037 338.538 52.5029" stroke="url(#paint8_linear_848_122171)"/>
<path d="M1 188.39C24.0624 190.1 86.0698 185.16 149.599 151.719C199.66 125.367 254.153 32.5013 328.949 24.501" stroke="url(#paint9_linear_848_122171)"/>
<path d="M1 193.062C24.0624 194.772 86.0698 189.831 149.599 156.39C199.66 130.039 243.925 22.0003 327.031 13.5" stroke="url(#paint10_linear_848_122171)"/>
<path d="M1 197.734C24.0624 199.444 86.0698 194.504 149.599 161.063C199.66 134.711 223.468 18.0007 329.588 1" stroke="url(#paint11_linear_848_122171)"/>
<path d="M1 202.408C24.0624 204.118 86.0698 199.178 149.599 165.737C199.66 139.385 272.153 137.667 343.357 139.398" stroke="url(#paint12_linear_848_122171)"/>
<path d="M1 207.079C24.0624 208.789 86.0698 203.849 149.599 170.408C199.66 144.056 272.153 142.338 343.357 144.069" stroke="url(#paint13_linear_848_122171)"/>
<path d="M1 211.753C24.0624 213.463 86.0698 208.523 149.599 175.082C199.66 148.73 272.153 147.012 343.357 148.743" stroke="url(#paint14_linear_848_122171)"/>
<path d="M1 216.426C24.0624 218.136 86.0698 213.196 149.599 179.755C199.66 153.403 272.153 151.685 343.357 153.415" stroke="url(#paint15_linear_848_122171)"/>
<path d="M1 221.099C24.0624 222.809 86.0698 217.868 149.599 184.427C199.66 158.076 272.153 156.357 343.357 158.088" stroke="url(#paint16_linear_848_122171)"/>
<path d="M1 225.77C24.0624 227.48 86.0698 222.539 149.599 189.098C199.66 162.747 272.153 161.028 343.357 162.759" stroke="url(#paint17_linear_848_122171)"/>
<path d="M1 230.445C24.0624 232.155 86.0698 227.215 149.599 193.774C199.66 167.423 272.153 165.704 343.357 167.435" stroke="url(#paint18_linear_848_122171)"/>
<path d="M1 147.944C24.0624 146.234 86.0698 151.175 149.599 184.615C199.66 210.967 272.153 212.686 343.357 210.955" stroke="url(#paint19_linear_848_122171)"/>
<path d="M1 144.082C24.0624 142.372 86.0698 147.312 149.599 180.753C199.66 207.105 272.153 208.823 343.357 207.092" stroke="url(#paint20_linear_848_122171)"/>
<path d="M1 140.221C24.0624 138.511 86.0698 143.451 149.599 176.892C199.66 203.243 272.153 204.962 343.357 203.231" stroke="url(#paint21_linear_848_122171)"/>
<path d="M1 136.362C24.0624 134.652 86.0698 139.592 149.599 173.033C199.66 199.385 272.153 201.104 343.357 199.373" stroke="url(#paint22_linear_848_122171)"/>
<path d="M1 132.501C24.0624 130.791 86.0698 135.731 149.599 169.172C199.66 195.524 272.153 197.242 343.357 195.511" stroke="url(#paint23_linear_848_122171)"/>
<path d="M1 128.641C24.0624 126.931 86.0698 131.871 149.599 165.312C199.66 191.663 272.153 193.382 343.357 191.651" stroke="url(#paint24_linear_848_122171)"/>
<path d="M1 124.78C24.0624 123.07 86.0698 128.01 149.599 161.451C199.66 187.803 272.153 189.521 343.357 187.791" stroke="url(#paint25_linear_848_122171)"/>
<path d="M1 120.917C24.0624 119.207 86.0698 124.147 149.599 157.588C199.66 183.94 272.153 185.658 343.357 183.927" stroke="url(#paint26_linear_848_122171)"/>
<path d="M1 117.059C24.0624 115.349 86.0698 120.289 149.599 153.73C199.66 180.081 272.153 181.8 343.357 180.069" stroke="url(#paint27_linear_848_122171)"/>
<path d="M1 113.199C24.0624 111.489 86.0698 116.429 149.599 149.87C199.66 176.222 272.153 177.94 343.357 176.21" stroke="url(#paint28_linear_848_122171)"/>
</g>
<defs>
<linearGradient id="paint0_linear_848_122171" x1="173.285" y1="335.519" x2="173.285" y2="170.862" gradientUnits="userSpaceOnUse">
<stop stop-color="#3D639A" stop-opacity="0"/>
<stop offset="0.135" stop-color="#223F6B" stop-opacity="0.7"/>
<stop offset="0.705" stop-color="#3D639A"/>
</linearGradient>
<linearGradient id="paint1_linear_848_122171" x1="172.965" y1="322.04" x2="172.965" y2="166.953" gradientUnits="userSpaceOnUse">
<stop stop-color="#3D639A" stop-opacity="0"/>
<stop offset="0.135" stop-color="#223F6B" stop-opacity="0.7"/>
<stop offset="0.705" stop-color="#3D639A"/>
</linearGradient>
<linearGradient id="paint2_linear_848_122171" x1="169.449" y1="309.038" x2="169.449" y2="163.087" gradientUnits="userSpaceOnUse">
<stop stop-color="#3D639A" stop-opacity="0"/>
<stop offset="0.135" stop-color="#223F6B" stop-opacity="0.7"/>
<stop offset="0.705" stop-color="#3D639A"/>
</linearGradient>
<linearGradient id="paint3_linear_848_122171" x1="172.326" y1="349.515" x2="172.326" y2="159.232" gradientUnits="userSpaceOnUse">
<stop stop-color="#3D639A" stop-opacity="0"/>
<stop offset="0.135" stop-color="#223F6B" stop-opacity="0.7"/>
<stop offset="0.705" stop-color="#3D639A"/>
</linearGradient>
<linearGradient id="paint4_linear_848_122171" x1="165.614" y1="357.516" x2="165.614" y2="155.37" gradientUnits="userSpaceOnUse">
<stop stop-color="#3D639A" stop-opacity="0"/>
<stop offset="0.135" stop-color="#223F6B" stop-opacity="0.7"/>
<stop offset="0.705" stop-color="#3D639A"/>
</linearGradient>
<linearGradient id="paint5_linear_848_122171" x1="171.687" y1="366.014" x2="171.687" y2="151.511" gradientUnits="userSpaceOnUse">
<stop stop-color="#3D639A" stop-opacity="0"/>
<stop offset="0.135" stop-color="#223F6B" stop-opacity="0.7"/>
<stop offset="0.705" stop-color="#3D639A"/>
</linearGradient>
<linearGradient id="paint6_linear_848_122171" x1="170.728" y1="33.501" x2="170.728" y2="176.239" gradientUnits="userSpaceOnUse">
<stop stop-color="#3D639A" stop-opacity="0"/>
<stop offset="0.135" stop-color="#223F6B" stop-opacity="0.7"/>
<stop offset="0.705" stop-color="#3D639A"/>
</linearGradient>
<linearGradient id="paint7_linear_848_122171" x1="172.006" y1="43.002" x2="172.006" y2="180.15" gradientUnits="userSpaceOnUse">
<stop stop-color="#3D639A" stop-opacity="0"/>
<stop offset="0.135" stop-color="#223F6B" stop-opacity="0.7"/>
<stop offset="0.705" stop-color="#3D639A"/>
</linearGradient>
<linearGradient id="paint8_linear_848_122171" x1="169.769" y1="52.5029" x2="169.769" y2="184.01" gradientUnits="userSpaceOnUse">
<stop stop-color="#3D639A" stop-opacity="0"/>
<stop offset="0.135" stop-color="#223F6B" stop-opacity="0.7"/>
<stop offset="0.705" stop-color="#3D639A"/>
</linearGradient>
<linearGradient id="paint9_linear_848_122171" x1="164.974" y1="24.501" x2="164.974" y2="188.684" gradientUnits="userSpaceOnUse">
<stop stop-color="#3D639A" stop-opacity="0"/>
<stop offset="0.135" stop-color="#223F6B" stop-opacity="0.7"/>
<stop offset="0.705" stop-color="#3D639A"/>
</linearGradient>
<linearGradient id="paint10_linear_848_122171" x1="164.015" y1="13.5" x2="164.015" y2="193.355" gradientUnits="userSpaceOnUse">
<stop stop-color="#3D639A" stop-opacity="0"/>
<stop offset="0.135" stop-color="#223F6B" stop-opacity="0.7"/>
<stop offset="0.705" stop-color="#3D639A"/>
</linearGradient>
<linearGradient id="paint11_linear_848_122171" x1="165.294" y1="1" x2="165.294" y2="198.028" gradientUnits="userSpaceOnUse">
<stop stop-color="#3D639A" stop-opacity="0"/>
<stop offset="0.135" stop-color="#223F6B" stop-opacity="0.7"/>
<stop offset="0.705" stop-color="#3D639A"/>
</linearGradient>
<linearGradient id="paint12_linear_848_122171" x1="172.178" y1="138.918" x2="172.178" y2="202.702" gradientUnits="userSpaceOnUse">
<stop stop-color="#223F6B" stop-opacity="0"/>
<stop offset="0.0001" stop-color="#223F6B" stop-opacity="0.7"/>
<stop offset="0.375" stop-color="#3D639A"/>
<stop offset="0.51" stop-color="#3D639A"/>
<stop offset="0.75"/>
</linearGradient>
<linearGradient id="paint13_linear_848_122171" x1="172.178" y1="143.589" x2="172.178" y2="207.373" gradientUnits="userSpaceOnUse">
<stop stop-color="#223F6B" stop-opacity="0"/>
<stop offset="0.0001" stop-color="#223F6B" stop-opacity="0.7"/>
<stop offset="0.375" stop-color="#3D639A"/>
<stop offset="0.51" stop-color="#3D639A"/>
<stop offset="0.75"/>
</linearGradient>
<linearGradient id="paint14_linear_848_122171" x1="172.178" y1="148.263" x2="172.178" y2="212.047" gradientUnits="userSpaceOnUse">
<stop stop-color="#223F6B" stop-opacity="0"/>
<stop offset="0.0001" stop-color="#223F6B" stop-opacity="0.7"/>
<stop offset="0.375" stop-color="#3D639A"/>
<stop offset="0.51" stop-color="#3D639A"/>
<stop offset="0.75"/>
</linearGradient>
<linearGradient id="paint15_linear_848_122171" x1="172.178" y1="152.936" x2="172.178" y2="216.72" gradientUnits="userSpaceOnUse">
<stop stop-color="#223F6B" stop-opacity="0"/>
<stop offset="0.0001" stop-color="#223F6B" stop-opacity="0.7"/>
<stop offset="0.375" stop-color="#3D639A"/>
<stop offset="0.51" stop-color="#3D639A"/>
<stop offset="0.75"/>
</linearGradient>
<linearGradient id="paint16_linear_848_122171" x1="172.178" y1="157.608" x2="172.178" y2="221.393" gradientUnits="userSpaceOnUse">
<stop stop-color="#223F6B" stop-opacity="0"/>
<stop offset="0.0001" stop-color="#223F6B" stop-opacity="0.7"/>
<stop offset="0.375" stop-color="#3D639A"/>
<stop offset="0.51" stop-color="#3D639A"/>
<stop offset="0.75"/>
</linearGradient>
<linearGradient id="paint17_linear_848_122171" x1="172.178" y1="162.279" x2="172.178" y2="226.063" gradientUnits="userSpaceOnUse">
<stop stop-color="#223F6B" stop-opacity="0"/>
<stop offset="0.0001" stop-color="#223F6B" stop-opacity="0.7"/>
<stop offset="0.375" stop-color="#3D639A"/>
<stop offset="0.51" stop-color="#3D639A"/>
<stop offset="0.75"/>
</linearGradient>
<linearGradient id="paint18_linear_848_122171" x1="172.178" y1="166.955" x2="172.178" y2="230.739" gradientUnits="userSpaceOnUse">
<stop stop-color="#223F6B" stop-opacity="0"/>
<stop offset="0.0001" stop-color="#223F6B" stop-opacity="0.7"/>
<stop offset="0.375" stop-color="#3D639A"/>
<stop offset="0.5" stop-color="#3D639A"/>
<stop offset="0.75"/>
</linearGradient>
<linearGradient id="paint19_linear_848_122171" x1="172.178" y1="211.435" x2="172.178" y2="147.65" gradientUnits="userSpaceOnUse">
<stop stop-color="#223F6B" stop-opacity="0"/>
<stop offset="0.0001" stop-color="#223F6B" stop-opacity="0.7"/>
<stop offset="0.375" stop-color="#3D639A"/>
<stop offset="0.51" stop-color="#3D639A"/>
<stop offset="0.75"/>
</linearGradient>
<linearGradient id="paint20_linear_848_122171" x1="172.178" y1="207.572" x2="172.178" y2="143.788" gradientUnits="userSpaceOnUse">
<stop stop-color="#223F6B" stop-opacity="0"/>
<stop offset="0.0001" stop-color="#223F6B" stop-opacity="0.7"/>
<stop offset="0.375" stop-color="#3D639A"/>
<stop offset="0.51" stop-color="#3D639A"/>
<stop offset="0.75"/>
</linearGradient>
<linearGradient id="paint21_linear_848_122171" x1="172.178" y1="203.711" x2="172.178" y2="139.927" gradientUnits="userSpaceOnUse">
<stop stop-color="#223F6B" stop-opacity="0"/>
<stop offset="0.0001" stop-color="#223F6B" stop-opacity="0.7"/>
<stop offset="0.375" stop-color="#3D639A"/>
<stop offset="0.51" stop-color="#3D639A"/>
<stop offset="0.75"/>
</linearGradient>
<linearGradient id="paint22_linear_848_122171" x1="172.178" y1="199.853" x2="172.178" y2="136.068" gradientUnits="userSpaceOnUse">
<stop stop-color="#223F6B" stop-opacity="0"/>
<stop offset="0.0001" stop-color="#223F6B" stop-opacity="0.7"/>
<stop offset="0.375" stop-color="#3D639A"/>
<stop offset="0.51" stop-color="#3D639A"/>
<stop offset="0.75"/>
</linearGradient>
<linearGradient id="paint23_linear_848_122171" x1="172.178" y1="195.991" x2="172.178" y2="132.207" gradientUnits="userSpaceOnUse">
<stop stop-color="#223F6B" stop-opacity="0"/>
<stop offset="0.0001" stop-color="#223F6B" stop-opacity="0.7"/>
<stop offset="0.375" stop-color="#3D639A"/>
<stop offset="0.51" stop-color="#3D639A"/>
<stop offset="0.75"/>
</linearGradient>
<linearGradient id="paint24_linear_848_122171" x1="172.178" y1="192.131" x2="172.178" y2="128.347" gradientUnits="userSpaceOnUse">
<stop stop-color="#223F6B" stop-opacity="0"/>
<stop offset="0.0001" stop-color="#223F6B" stop-opacity="0.7"/>
<stop offset="0.375" stop-color="#3D639A"/>
<stop offset="0.51" stop-color="#3D639A"/>
<stop offset="0.75"/>
</linearGradient>
<linearGradient id="paint25_linear_848_122171" x1="172.178" y1="188.271" x2="172.178" y2="124.486" gradientUnits="userSpaceOnUse">
<stop stop-color="#223F6B" stop-opacity="0"/>
<stop offset="0.0001" stop-color="#223F6B" stop-opacity="0.7"/>
<stop offset="0.375" stop-color="#3D639A"/>
<stop offset="0.51" stop-color="#3D639A"/>
<stop offset="0.75"/>
</linearGradient>
<linearGradient id="paint26_linear_848_122171" x1="172.178" y1="184.407" x2="172.178" y2="120.623" gradientUnits="userSpaceOnUse">
<stop stop-color="#223F6B" stop-opacity="0"/>
<stop offset="0.0001" stop-color="#223F6B" stop-opacity="0.7"/>
<stop offset="0.375" stop-color="#3D639A"/>
<stop offset="0.51" stop-color="#3D639A"/>
<stop offset="0.75"/>
</linearGradient>
<linearGradient id="paint27_linear_848_122171" x1="172.178" y1="180.549" x2="172.178" y2="116.765" gradientUnits="userSpaceOnUse">
<stop stop-color="#223F6B" stop-opacity="0"/>
<stop offset="0.0001" stop-color="#223F6B" stop-opacity="0.7"/>
<stop offset="0.375" stop-color="#3D639A"/>
<stop offset="0.51" stop-color="#3D639A"/>
<stop offset="0.75"/>
</linearGradient>
<linearGradient id="paint28_linear_848_122171" x1="172.178" y1="176.689" x2="172.178" y2="112.905" gradientUnits="userSpaceOnUse">
<stop stop-color="#223F6B" stop-opacity="0"/>
<stop offset="0.0001" stop-color="#223F6B" stop-opacity="0.7"/>
<stop offset="0.375" stop-color="#3D639A"/>
<stop offset="0.51" stop-color="#3D639A"/>
<stop offset="0.75"/>
</linearGradient>
</defs>
</svg>
