<svg width="345" height="367" viewBox="0 0 345 367" fill="none" xmlns="http://www.w3.org/2000/svg">
<g style="mix-blend-mode:screen" opacity="0.8">
<path d="M344.465 175.988C321.41 177.698 260.687 171.237 195.912 139.317C142.516 113.004 72.2169 37.5011 5.11356 33.501" stroke="url(#paint0_linear_848_122141)"/>
<path d="M344.465 179.856C321.41 181.566 259.421 176.626 195.912 143.185C145.866 116.834 81.8031 50.5023 2.55721 43.002" stroke="url(#paint1_linear_848_122141)"/>
<path d="M344.465 183.717C321.41 185.427 259.421 180.486 195.912 147.045C145.866 120.694 108.005 72.0037 7.0308 52.5029" stroke="url(#paint2_linear_848_122141)"/>
<path d="M344.465 188.39C321.41 190.1 259.421 185.16 195.912 151.719C145.866 125.367 91.3893 32.5013 16.6169 24.501" stroke="url(#paint3_linear_848_122141)"/>
<path d="M344.465 193.062C321.41 194.772 259.421 189.831 195.912 156.39C145.866 130.039 98.4192 21.0003 18.5342 13.5" stroke="url(#paint4_linear_848_122141)"/>
<path d="M344.465 197.734C321.41 199.444 259.421 194.504 195.912 161.063C145.866 134.711 122.065 18.0007 15.9779 1" stroke="url(#paint5_linear_848_122141)"/>
<path d="M344.465 202.408C321.41 204.118 259.421 199.178 195.912 165.737C145.866 139.385 73.3952 137.667 2.21328 139.398" stroke="url(#paint6_linear_848_122141)"/>
<path d="M344.465 207.079C321.41 208.789 259.421 203.849 195.912 170.408C145.866 144.056 73.3952 142.338 2.21328 144.069" stroke="url(#paint7_linear_848_122141)"/>
<path d="M344.465 211.753C321.41 213.463 259.421 208.523 195.912 175.082C145.866 148.73 73.3952 147.012 2.21328 148.743" stroke="url(#paint8_linear_848_122141)"/>
<path d="M344.465 216.426C321.41 218.136 259.421 213.196 195.912 179.755C145.866 153.403 73.3952 151.685 2.21328 153.415" stroke="url(#paint9_linear_848_122141)"/>
<path d="M344.465 221.099C321.41 222.809 259.421 217.868 195.912 184.427C145.866 158.076 73.3952 156.357 2.21328 158.088" stroke="url(#paint10_linear_848_122141)"/>
<path d="M344.465 225.77C321.41 227.48 259.421 222.539 195.912 189.098C145.866 162.747 73.3952 161.028 2.21328 162.759" stroke="url(#paint11_linear_848_122141)"/>
<path d="M344.465 230.445C321.41 232.155 259.421 227.215 195.912 193.774C145.866 167.423 73.3952 165.704 2.21328 167.435" stroke="url(#paint12_linear_848_122141)"/>
<path d="M344.465 171.108C321.41 169.398 260.868 176.085 195.912 207.779C132.929 238.511 69.6606 335.519 0.000922978 335.519" stroke="url(#paint13_linear_848_122141)"/>
<path d="M344.465 167.247C321.41 165.537 259.421 170.477 195.912 203.918C145.866 230.27 71.8219 323.747 0.639971 322.016" stroke="url(#paint14_linear_848_122141)"/>
<path d="M344.465 163.385C321.41 161.675 256.272 166.507 195.912 200.056C144.858 228.432 78.8518 310.742 7.66985 309.011" stroke="url(#paint15_linear_848_122141)"/>
<path d="M344.465 159.526C321.41 157.816 259.421 162.756 195.912 196.197C145.866 222.549 80.2298 344.016 1.91816 349.515" stroke="url(#paint16_linear_848_122141)"/>
<path d="M344.465 155.664C321.41 153.954 259.421 158.894 195.912 192.335C145.866 218.687 84.3594 352.015 15.3388 357.516" stroke="url(#paint17_linear_848_122141)"/>
<path d="M344.57 151.759C321.515 150.049 259.527 154.99 196.017 188.431C145.971 214.782 95.3292 356.967 26.9477 363.968L3.30176 365.968" stroke="url(#paint18_linear_848_122141)"/>
<path d="M344.465 147.944C321.41 146.234 259.421 151.175 195.912 184.615C145.866 210.967 73.3952 212.686 2.21328 210.955" stroke="url(#paint19_linear_848_122141)"/>
<path d="M344.465 144.082C321.41 142.372 259.421 147.312 195.912 180.753C145.866 207.105 73.3952 208.823 2.21328 207.092" stroke="url(#paint20_linear_848_122141)"/>
<path d="M344.465 140.221C321.41 138.511 259.421 143.451 195.912 176.892C145.866 203.243 73.3952 204.962 2.21328 203.231" stroke="url(#paint21_linear_848_122141)"/>
<path d="M344.465 136.362C321.41 134.652 259.421 139.592 195.912 173.033C145.866 199.385 73.3952 201.104 2.21328 199.373" stroke="url(#paint22_linear_848_122141)"/>
<path d="M344.465 132.501C321.41 130.791 259.421 135.731 195.912 169.172C145.866 195.524 73.3952 197.242 2.21328 195.511" stroke="url(#paint23_linear_848_122141)"/>
<path d="M344.465 128.641C321.41 126.931 259.421 131.871 195.912 165.312C145.866 191.663 73.3952 193.382 2.21328 191.651" stroke="url(#paint24_linear_848_122141)"/>
<path d="M344.465 124.78C321.41 123.07 259.421 128.01 195.912 161.451C145.866 187.803 73.3952 189.521 2.21328 187.791" stroke="url(#paint25_linear_848_122141)"/>
<path d="M344.465 120.917C321.41 119.207 259.421 124.147 195.912 157.588C145.866 183.94 73.3952 185.658 2.21328 183.927" stroke="url(#paint26_linear_848_122141)"/>
<path d="M344.465 117.059C321.41 115.349 259.421 120.289 195.912 153.73C145.866 180.081 73.3952 181.8 2.21328 180.069" stroke="url(#paint27_linear_848_122141)"/>
<path d="M344.465 113.199C321.41 111.489 259.421 116.429 195.912 149.87C145.866 176.222 73.3952 177.94 2.21328 176.21" stroke="url(#paint28_linear_848_122141)"/>
</g>
<defs>
<linearGradient id="paint0_linear_848_122141" x1="174.789" y1="33.501" x2="174.789" y2="176.239" gradientUnits="userSpaceOnUse">
<stop stop-color="#3D639A" stop-opacity="0"/>
<stop offset="0.16" stop-color="#223F6B" stop-opacity="0.7"/>
<stop offset="0.705" stop-color="#3D639A"/>
</linearGradient>
<linearGradient id="paint1_linear_848_122141" x1="173.511" y1="43.002" x2="173.511" y2="180.15" gradientUnits="userSpaceOnUse">
<stop stop-color="#3D639A" stop-opacity="0"/>
<stop offset="0.16" stop-color="#223F6B" stop-opacity="0.7"/>
<stop offset="0.705" stop-color="#3D639A"/>
</linearGradient>
<linearGradient id="paint2_linear_848_122141" x1="175.748" y1="52.5029" x2="175.748" y2="184.01" gradientUnits="userSpaceOnUse">
<stop stop-color="#3D639A" stop-opacity="0"/>
<stop offset="0.16" stop-color="#223F6B" stop-opacity="0.7"/>
<stop offset="0.705" stop-color="#3D639A"/>
</linearGradient>
<linearGradient id="paint3_linear_848_122141" x1="180.541" y1="24.501" x2="180.541" y2="188.684" gradientUnits="userSpaceOnUse">
<stop stop-color="#3D639A" stop-opacity="0"/>
<stop offset="0.16" stop-color="#223F6B" stop-opacity="0.7"/>
<stop offset="0.705" stop-color="#3D639A"/>
</linearGradient>
<linearGradient id="paint4_linear_848_122141" x1="181.5" y1="13.5" x2="181.5" y2="193.355" gradientUnits="userSpaceOnUse">
<stop stop-color="#3D639A" stop-opacity="0"/>
<stop offset="0.16" stop-color="#223F6B" stop-opacity="0.7"/>
<stop offset="0.705" stop-color="#3D639A"/>
</linearGradient>
<linearGradient id="paint5_linear_848_122141" x1="180.221" y1="1" x2="180.221" y2="198.028" gradientUnits="userSpaceOnUse">
<stop stop-color="#3D639A" stop-opacity="0"/>
<stop offset="0.16" stop-color="#223F6B" stop-opacity="0.7"/>
<stop offset="0.705" stop-color="#3D639A"/>
</linearGradient>
<linearGradient id="paint6_linear_848_122141" x1="173.339" y1="138.918" x2="173.339" y2="202.702" gradientUnits="userSpaceOnUse">
<stop stop-color="#3D639A" stop-opacity="0"/>
<stop offset="0.0001" stop-color="#223F6B" stop-opacity="0.7"/>
<stop offset="0.345" stop-color="#3D639A"/>
<stop offset="0.5" stop-color="#3D639A"/>
<stop offset="0.75"/>
</linearGradient>
<linearGradient id="paint7_linear_848_122141" x1="173.339" y1="143.589" x2="173.339" y2="207.373" gradientUnits="userSpaceOnUse">
<stop stop-color="#3D639A" stop-opacity="0"/>
<stop offset="0.0001" stop-color="#223F6B" stop-opacity="0.7"/>
<stop offset="0.345" stop-color="#3D639A"/>
<stop offset="0.5" stop-color="#3D639A"/>
<stop offset="0.75"/>
</linearGradient>
<linearGradient id="paint8_linear_848_122141" x1="173.339" y1="148.263" x2="173.339" y2="212.047" gradientUnits="userSpaceOnUse">
<stop stop-color="#3D639A" stop-opacity="0"/>
<stop offset="0.0001" stop-color="#223F6B" stop-opacity="0.7"/>
<stop offset="0.345" stop-color="#3D639A"/>
<stop offset="0.5" stop-color="#3D639A"/>
<stop offset="0.75"/>
</linearGradient>
<linearGradient id="paint9_linear_848_122141" x1="173.339" y1="152.936" x2="173.339" y2="216.72" gradientUnits="userSpaceOnUse">
<stop stop-color="#3D639A" stop-opacity="0"/>
<stop offset="0.0001" stop-color="#223F6B" stop-opacity="0.7"/>
<stop offset="0.345" stop-color="#3D639A"/>
<stop offset="0.5" stop-color="#3D639A"/>
<stop offset="0.75"/>
</linearGradient>
<linearGradient id="paint10_linear_848_122141" x1="173.339" y1="157.608" x2="173.339" y2="221.393" gradientUnits="userSpaceOnUse">
<stop stop-color="#3D639A" stop-opacity="0"/>
<stop offset="0.0001" stop-color="#223F6B" stop-opacity="0.7"/>
<stop offset="0.345" stop-color="#3D639A"/>
<stop offset="0.5" stop-color="#3D639A"/>
<stop offset="0.75"/>
</linearGradient>
<linearGradient id="paint11_linear_848_122141" x1="173.339" y1="162.279" x2="173.339" y2="226.063" gradientUnits="userSpaceOnUse">
<stop stop-color="#3D639A" stop-opacity="0"/>
<stop offset="0.0001" stop-color="#223F6B" stop-opacity="0.7"/>
<stop offset="0.345" stop-color="#3D639A"/>
<stop offset="0.5" stop-color="#3D639A"/>
<stop offset="0.75"/>
</linearGradient>
<linearGradient id="paint12_linear_848_122141" x1="173.339" y1="166.955" x2="173.339" y2="230.739" gradientUnits="userSpaceOnUse">
<stop stop-color="#3D639A" stop-opacity="0"/>
<stop offset="0.0001" stop-color="#223F6B" stop-opacity="0.7"/>
<stop offset="0.345" stop-color="#3D639A"/>
<stop offset="0.5" stop-color="#3D639A"/>
<stop offset="0.75"/>
</linearGradient>
<linearGradient id="paint13_linear_848_122141" x1="172.233" y1="335.519" x2="172.233" y2="170.862" gradientUnits="userSpaceOnUse">
<stop stop-color="#3D639A" stop-opacity="0"/>
<stop offset="0.16" stop-color="#223F6B" stop-opacity="0.7"/>
<stop offset="0.705" stop-color="#3D639A"/>
</linearGradient>
<linearGradient id="paint14_linear_848_122141" x1="172.552" y1="322.04" x2="172.552" y2="166.953" gradientUnits="userSpaceOnUse">
<stop stop-color="#3D639A" stop-opacity="0"/>
<stop offset="0.16" stop-color="#223F6B" stop-opacity="0.7"/>
<stop offset="0.705" stop-color="#3D639A"/>
</linearGradient>
<linearGradient id="paint15_linear_848_122141" x1="176.067" y1="309.038" x2="176.067" y2="163.087" gradientUnits="userSpaceOnUse">
<stop stop-color="#3D639A" stop-opacity="0"/>
<stop offset="0.16" stop-color="#223F6B" stop-opacity="0.7"/>
<stop offset="0.705" stop-color="#3D639A"/>
</linearGradient>
<linearGradient id="paint16_linear_848_122141" x1="173.191" y1="349.515" x2="173.191" y2="159.232" gradientUnits="userSpaceOnUse">
<stop stop-color="#3D639A" stop-opacity="0"/>
<stop offset="0.16" stop-color="#223F6B" stop-opacity="0.7"/>
<stop offset="0.705" stop-color="#3D639A"/>
</linearGradient>
<linearGradient id="paint17_linear_848_122141" x1="179.902" y1="357.516" x2="179.902" y2="155.37" gradientUnits="userSpaceOnUse">
<stop stop-color="#3D639A" stop-opacity="0"/>
<stop offset="0.16" stop-color="#223F6B" stop-opacity="0.7"/>
<stop offset="0.705" stop-color="#3D639A"/>
</linearGradient>
<linearGradient id="paint18_linear_848_122141" x1="173.936" y1="365.968" x2="173.936" y2="151.466" gradientUnits="userSpaceOnUse">
<stop stop-color="#3D639A" stop-opacity="0"/>
<stop offset="0.16" stop-color="#223F6B" stop-opacity="0.7"/>
<stop offset="0.705" stop-color="#3D639A"/>
</linearGradient>
<linearGradient id="paint19_linear_848_122141" x1="173.339" y1="211.435" x2="173.339" y2="147.65" gradientUnits="userSpaceOnUse">
<stop stop-color="#3D639A" stop-opacity="0"/>
<stop offset="0.0001" stop-color="#223F6B" stop-opacity="0.7"/>
<stop offset="0.345" stop-color="#3D639A"/>
<stop offset="0.5" stop-color="#3D639A"/>
<stop offset="0.75"/>
</linearGradient>
<linearGradient id="paint20_linear_848_122141" x1="173.339" y1="207.572" x2="173.339" y2="143.788" gradientUnits="userSpaceOnUse">
<stop stop-color="#3D639A" stop-opacity="0"/>
<stop offset="0.0001" stop-color="#223F6B" stop-opacity="0.7"/>
<stop offset="0.345" stop-color="#3D639A"/>
<stop offset="0.5" stop-color="#3D639A"/>
<stop offset="0.75"/>
</linearGradient>
<linearGradient id="paint21_linear_848_122141" x1="173.339" y1="203.711" x2="173.339" y2="139.927" gradientUnits="userSpaceOnUse">
<stop stop-color="#3D639A" stop-opacity="0"/>
<stop offset="0.0001" stop-color="#223F6B" stop-opacity="0.7"/>
<stop offset="0.345" stop-color="#3D639A"/>
<stop offset="0.5" stop-color="#3D639A"/>
<stop offset="0.75"/>
</linearGradient>
<linearGradient id="paint22_linear_848_122141" x1="173.339" y1="199.853" x2="173.339" y2="136.068" gradientUnits="userSpaceOnUse">
<stop stop-color="#3D639A" stop-opacity="0"/>
<stop offset="0.0001" stop-color="#223F6B" stop-opacity="0.7"/>
<stop offset="0.345" stop-color="#3D639A"/>
<stop offset="0.5" stop-color="#3D639A"/>
<stop offset="0.75"/>
</linearGradient>
<linearGradient id="paint23_linear_848_122141" x1="173.339" y1="195.991" x2="173.339" y2="132.207" gradientUnits="userSpaceOnUse">
<stop stop-color="#3D639A" stop-opacity="0"/>
<stop offset="0.0001" stop-color="#223F6B" stop-opacity="0.7"/>
<stop offset="0.345" stop-color="#3D639A"/>
<stop offset="0.5" stop-color="#3D639A"/>
<stop offset="0.75"/>
</linearGradient>
<linearGradient id="paint24_linear_848_122141" x1="173.339" y1="192.131" x2="173.339" y2="128.347" gradientUnits="userSpaceOnUse">
<stop stop-color="#3D639A" stop-opacity="0"/>
<stop offset="0.0001" stop-color="#223F6B" stop-opacity="0.7"/>
<stop offset="0.345" stop-color="#3D639A"/>
<stop offset="0.5" stop-color="#3D639A"/>
<stop offset="0.75"/>
</linearGradient>
<linearGradient id="paint25_linear_848_122141" x1="173.339" y1="188.271" x2="173.339" y2="124.486" gradientUnits="userSpaceOnUse">
<stop stop-color="#3D639A" stop-opacity="0"/>
<stop offset="0.0001" stop-color="#223F6B" stop-opacity="0.7"/>
<stop offset="0.345" stop-color="#3D639A"/>
<stop offset="0.5" stop-color="#3D639A"/>
<stop offset="0.75"/>
</linearGradient>
<linearGradient id="paint26_linear_848_122141" x1="173.339" y1="184.407" x2="173.339" y2="120.623" gradientUnits="userSpaceOnUse">
<stop stop-color="#3D639A" stop-opacity="0"/>
<stop offset="0.0001" stop-color="#223F6B" stop-opacity="0.7"/>
<stop offset="0.345" stop-color="#3D639A"/>
<stop offset="0.5" stop-color="#3D639A"/>
<stop offset="0.75"/>
</linearGradient>
<linearGradient id="paint27_linear_848_122141" x1="173.339" y1="180.549" x2="173.339" y2="116.765" gradientUnits="userSpaceOnUse">
<stop stop-color="#3D639A" stop-opacity="0"/>
<stop offset="0.0001" stop-color="#223F6B" stop-opacity="0.7"/>
<stop offset="0.345" stop-color="#3D639A"/>
<stop offset="0.5" stop-color="#3D639A"/>
<stop offset="0.75"/>
</linearGradient>
<linearGradient id="paint28_linear_848_122141" x1="173.339" y1="176.689" x2="173.339" y2="112.905" gradientUnits="userSpaceOnUse">
<stop stop-color="#3D639A" stop-opacity="0"/>
<stop offset="0.0001" stop-color="#223F6B" stop-opacity="0.7"/>
<stop offset="0.345" stop-color="#3D639A"/>
<stop offset="0.5" stop-color="#3D639A"/>
<stop offset="0.75"/>
</linearGradient>
</defs>
</svg>
