<svg width="305" height="274" viewBox="0 0 305 274" fill="none" xmlns="http://www.w3.org/2000/svg">
<path d="M147.322 259C108.5 259 116.261 273 80.5 273" stroke="#3D639A" stroke-width="0.396344"/>
<path d="M245 270C268.5 270 268 242.5 289.5 242.5" stroke="url(#paint0_linear_848_131379)" stroke-width="0.396344"/>
<path d="M247 216.5C273.678 215 266.657 232.5 297 232.5" stroke="url(#paint1_linear_848_131379)" stroke-width="0.396344"/>
<path d="M57.5 218.5C32.6777 217 34.5 232 10.5 232" stroke="url(#paint2_linear_848_131379)" stroke-width="0.396344"/>
<path d="M59.5 217C40.7181 217 33.903 179.5 15 179.5" stroke="url(#paint3_linear_848_131379)" stroke-width="0.396344"/>
<path d="M247 213C265.571 213 272.809 176.5 291.5 176.5" stroke="url(#paint4_linear_848_131379)" stroke-width="0.396344"/>
<path d="M161.322 259C198 256 193 273 226.5 273" stroke="#3D639A" stroke-width="0.396344"/>
<path d="M229 217C193 217 201.74 244.2 166 245" stroke="url(#paint5_linear_848_131379)" stroke-width="0.396344"/>
<path d="M289.5 238.5C226.5 234.5 229 252.5 164 256.5" stroke="url(#paint6_radial_848_131379)" stroke-width="0.396344"/>
<path d="M80 218C108.264 218 108.76 245 140 245" stroke="url(#paint7_linear_848_131379)" stroke-width="0.396344"/>
<path d="M91 215C113.214 215 110.689 174 143 174" stroke="url(#paint8_linear_848_131379)" stroke-width="0.396344"/>
<path d="M218 214C196.21 214 197.695 175 166 175" stroke="url(#paint9_linear_848_131379)" stroke-width="0.396344"/>
<path d="M11.5 233.5C71 233.5 86.5 256 137.322 256" stroke="url(#paint10_radial_848_131379)" stroke-width="0.396344"/>
<path d="M65.5 267C42 267 43.5 238 20 238" stroke="url(#paint11_linear_848_131379)" stroke-width="0.396344"/>
<path d="M147.322 15C108.5 15 116.261 1 80.5 1" stroke="#3D639A" stroke-width="0.396344"/>
<path d="M245 4C268.5 4 266.5 30 290 30" stroke="url(#paint12_linear_848_131379)" stroke-width="0.396344"/>
<path d="M247 57.4996C273.678 58.9996 266.657 41.5001 297 41.5001" stroke="url(#paint13_linear_848_131379)" stroke-width="0.396344"/>
<path d="M58.5 53C33.6777 54.4999 34.5 41.9999 10.5 41.9999" stroke="url(#paint14_linear_848_131379)" stroke-width="0.396344"/>
<path d="M147 127C130.007 127 131.103 136 114 136" stroke="url(#paint15_linear_848_131379)" stroke-width="0.396344"/>
<path d="M161 127C177.993 127 176.897 136 194 136" stroke="url(#paint16_linear_848_131379)" stroke-width="0.396344"/>
<path d="M2 115C17.9635 115 16.9336 135 33 135" stroke="url(#paint17_linear_848_131379)" stroke-width="0.396344"/>
<path d="M0 156C16.9934 156 15.897 137 33 137" stroke="url(#paint18_linear_848_131379)" stroke-width="0.396344"/>
<path d="M303 115C287.037 115 288.066 135 272 135" stroke="url(#paint19_linear_848_131379)" stroke-width="0.396344"/>
<path d="M305 156C288.007 156 289.103 137 272 137" stroke="url(#paint20_linear_848_131379)" stroke-width="0.396344"/>
<path d="M59.5 57C40.7181 57 33.903 94.5 15 94.5" stroke="url(#paint21_linear_848_131379)" stroke-width="0.396344"/>
<path d="M247 61C265.571 61 272.809 97.5 291.5 97.5" stroke="url(#paint22_linear_848_131379)" stroke-width="0.396344"/>
<path d="M161.322 15.0005C198 18 193 1.00045 226.5 1.00045" stroke="#3D639A" stroke-width="0.396344"/>
<path d="M229 57C193 57 201.74 23 166 22" stroke="url(#paint23_linear_848_131379)" stroke-width="0.396344"/>
<path d="M289.5 35.4999C226.5 39.4999 229 21.5 164 17.5" stroke="url(#paint24_radial_848_131379)" stroke-width="0.396344"/>
<path d="M80 56C108.5 56 109 21.5 140.5 21.5" stroke="url(#paint25_linear_848_131379)" stroke-width="0.396344"/>
<path d="M91 55C116.453 55 112.383 68 138 68" stroke="url(#paint26_linear_848_131379)" stroke-width="0.396344"/>
<path d="M221 56C191.316 56 201.876 69 172 69" stroke="url(#paint27_linear_848_131379)" stroke-width="0.396344"/>
<path d="M11.5 40.5C71 40.5 86.5 18 137.322 18" stroke="url(#paint28_radial_848_131379)" stroke-width="0.396344"/>
<path d="M65.5 7C42 7 43.5 36 20 36" stroke="url(#paint29_linear_848_131379)" stroke-width="0.396344"/>
<defs>
<linearGradient id="paint0_linear_848_131379" x1="242" y1="282.5" x2="275.822" y2="247" gradientUnits="userSpaceOnUse">
<stop offset="0.26" stop-color="#223F6B" stop-opacity="0"/>
<stop offset="0.47" stop-color="#223F6B" stop-opacity="0.7"/>
<stop offset="0.705" stop-color="#3D639A"/>
</linearGradient>
<linearGradient id="paint1_linear_848_131379" x1="249" y1="211.5" x2="296" y2="243.5" gradientUnits="userSpaceOnUse">
<stop stop-color="#223F6B" stop-opacity="0"/>
<stop offset="0.146493" stop-color="#223F6B" stop-opacity="0.7"/>
<stop offset="0.705" stop-color="#3D639A"/>
</linearGradient>
<linearGradient id="paint2_linear_848_131379" x1="66.5" y1="211" x2="11.5" y2="243" gradientUnits="userSpaceOnUse">
<stop offset="0.136531" stop-color="#223F6B" stop-opacity="0"/>
<stop offset="0.352351" stop-color="#223F6B" stop-opacity="0.7"/>
<stop offset="0.705" stop-color="#3D639A"/>
</linearGradient>
<linearGradient id="paint3_linear_848_131379" x1="58" y1="221" x2="28" y2="188" gradientUnits="userSpaceOnUse">
<stop stop-color="#3D639A" stop-opacity="0"/>
<stop offset="0.3" stop-color="#223F6B" stop-opacity="0.7"/>
<stop offset="0.705" stop-color="#3D639A"/>
</linearGradient>
<linearGradient id="paint4_linear_848_131379" x1="248.483" y1="216.52" x2="274.419" y2="184.464" gradientUnits="userSpaceOnUse">
<stop stop-color="#3D639A" stop-opacity="0"/>
<stop offset="0.3" stop-color="#223F6B" stop-opacity="0.7"/>
<stop offset="0.705" stop-color="#3D639A"/>
</linearGradient>
<linearGradient id="paint5_linear_848_131379" x1="220.42" y1="212.056" x2="214.764" y2="242.875" gradientUnits="userSpaceOnUse">
<stop offset="0.26" stop-color="#00A6DA" stop-opacity="0"/>
<stop offset="0.47" stop-color="#00A3DA" stop-opacity="0.7"/>
<stop offset="0.705" stop-color="#3D639A"/>
</linearGradient>
<radialGradient id="paint6_radial_848_131379" cx="0" cy="0" r="1" gradientUnits="userSpaceOnUse" gradientTransform="translate(230.852 247.999) rotate(-90) scale(3.00052 68.5296)">
<stop stop-color="#3D639A"/>
<stop offset="0.36" stop-color="#223F6B" stop-opacity="0.7"/>
<stop offset="0.705" stop-color="#3D639A"/>
</radialGradient>
<linearGradient id="paint7_linear_848_131379" x1="83.2677" y1="215.645" x2="90.0366" y2="240.542" gradientUnits="userSpaceOnUse">
<stop stop-color="#00A6DA" stop-opacity="0"/>
<stop offset="1" stop-color="#3D639A"/>
</linearGradient>
<linearGradient id="paint8_linear_848_131379" x1="108.874" y1="207.907" x2="109.496" y2="169.359" gradientUnits="userSpaceOnUse">
<stop stop-color="#223F6B"/>
<stop offset="0.414926" stop-color="#3D639A"/>
<stop offset="1" stop-color="#223F6B" stop-opacity="0.7"/>
</linearGradient>
<linearGradient id="paint9_linear_848_131379" x1="200.467" y1="206.932" x2="198.174" y2="170.733" gradientUnits="userSpaceOnUse">
<stop stop-color="#223F6B"/>
<stop offset="0.414926" stop-color="#3D639A"/>
<stop offset="0.875354" stop-color="#223F6B" stop-opacity="0.7"/>
</linearGradient>
<radialGradient id="paint10_radial_848_131379" cx="0" cy="0" r="1" gradientUnits="userSpaceOnUse" gradientTransform="translate(78.5681 248.055) rotate(-90) scale(2.97001 74.8023)">
<stop stop-color="#3D639A"/>
<stop offset="0.36" stop-color="#223F6B" stop-opacity="0.7"/>
<stop offset="0.705" stop-color="#3D639A"/>
</radialGradient>
<linearGradient id="paint11_linear_848_131379" x1="67.5" y1="277" x2="34.1777" y2="241" gradientUnits="userSpaceOnUse">
<stop offset="0.26" stop-color="#223F6B" stop-opacity="0"/>
<stop offset="0.47" stop-color="#223F6B" stop-opacity="0.7"/>
<stop offset="0.705" stop-color="#3D639A"/>
</linearGradient>
<linearGradient id="paint12_linear_848_131379" x1="251" y1="-5.5" x2="275.822" y2="27" gradientUnits="userSpaceOnUse">
<stop offset="0.26" stop-color="#223F6B" stop-opacity="0"/>
<stop offset="0.47" stop-color="#223F6B" stop-opacity="0.7"/>
<stop offset="0.705" stop-color="#3D639A"/>
</linearGradient>
<linearGradient id="paint13_linear_848_131379" x1="249" y1="62.5" x2="296" y2="30.5" gradientUnits="userSpaceOnUse">
<stop stop-color="#223F6B" stop-opacity="0"/>
<stop offset="0.146493" stop-color="#223F6B" stop-opacity="0.7"/>
<stop offset="0.705" stop-color="#3D639A"/>
</linearGradient>
<linearGradient id="paint14_linear_848_131379" x1="66.5" y1="63" x2="11.5" y2="31" gradientUnits="userSpaceOnUse">
<stop offset="0.136531" stop-color="#223F6B" stop-opacity="0"/>
<stop offset="0.352351" stop-color="#223F6B" stop-opacity="0.7"/>
<stop offset="0.705" stop-color="#3D639A"/>
</linearGradient>
<linearGradient id="paint15_linear_848_131379" x1="130.5" y1="127" x2="130.5" y2="136" gradientUnits="userSpaceOnUse">
<stop stop-color="#223F6B" stop-opacity="0"/>
<stop offset="0.0001" stop-color="#223F6B" stop-opacity="0.7"/>
<stop offset="0.705" stop-color="#3D639A"/>
</linearGradient>
<linearGradient id="paint16_linear_848_131379" x1="197.604" y1="124.973" x2="193.042" y2="140.552" gradientUnits="userSpaceOnUse">
<stop stop-color="#223F6B" stop-opacity="0"/>
<stop offset="0.47" stop-color="#223F6B" stop-opacity="0.7"/>
<stop offset="0.705" stop-color="#3D639A"/>
</linearGradient>
<linearGradient id="paint17_linear_848_131379" x1="8.41792" y1="101.245" x2="16.3056" y2="135.277" gradientUnits="userSpaceOnUse">
<stop offset="0.26" stop-color="#223F6B" stop-opacity="0"/>
<stop offset="0.47" stop-color="#223F6B" stop-opacity="0.7"/>
<stop offset="0.705" stop-color="#3D639A"/>
</linearGradient>
<linearGradient id="paint18_linear_848_131379" x1="36.6045" y1="160.279" x2="20.6322" y2="134.445" gradientUnits="userSpaceOnUse">
<stop stop-color="#223F6B" stop-opacity="0"/>
<stop offset="0.47" stop-color="#223F6B" stop-opacity="0.7"/>
<stop offset="0.705" stop-color="#3D639A"/>
</linearGradient>
<linearGradient id="paint19_linear_848_131379" x1="296.582" y1="101.245" x2="288.694" y2="135.277" gradientUnits="userSpaceOnUse">
<stop offset="0.26" stop-color="#223F6B" stop-opacity="0"/>
<stop offset="0.47" stop-color="#223F6B" stop-opacity="0.7"/>
<stop offset="0.705" stop-color="#3D639A"/>
</linearGradient>
<linearGradient id="paint20_linear_848_131379" x1="268.396" y1="160.279" x2="284.368" y2="134.445" gradientUnits="userSpaceOnUse">
<stop stop-color="#223F6B" stop-opacity="0"/>
<stop offset="0.47" stop-color="#223F6B" stop-opacity="0.7"/>
<stop offset="0.705" stop-color="#3D639A"/>
</linearGradient>
<linearGradient id="paint21_linear_848_131379" x1="58" y1="53" x2="28" y2="86" gradientUnits="userSpaceOnUse">
<stop stop-color="#3D639A" stop-opacity="0"/>
<stop offset="0.3" stop-color="#223F6B" stop-opacity="0.7"/>
<stop offset="0.705" stop-color="#3D639A"/>
</linearGradient>
<linearGradient id="paint22_linear_848_131379" x1="248.483" y1="57.48" x2="274.419" y2="89.5355" gradientUnits="userSpaceOnUse">
<stop stop-color="#3D639A" stop-opacity="0"/>
<stop offset="0.3" stop-color="#223F6B" stop-opacity="0.7"/>
<stop offset="0.705" stop-color="#3D639A"/>
</linearGradient>
<linearGradient id="paint23_linear_848_131379" x1="220.42" y1="63.1803" x2="211.742" y2="25.3501" gradientUnits="userSpaceOnUse">
<stop offset="0.26" stop-color="#00A6DA" stop-opacity="0"/>
<stop offset="0.47" stop-color="#00A3DA" stop-opacity="0.7"/>
<stop offset="0.705" stop-color="#3D639A"/>
</linearGradient>
<radialGradient id="paint24_radial_848_131379" cx="0" cy="0" r="1" gradientUnits="userSpaceOnUse" gradientTransform="translate(230.852 26.0005) rotate(90) scale(3.00052 68.5296)">
<stop stop-color="#3D639A"/>
<stop offset="0.36" stop-color="#223F6B" stop-opacity="0.7"/>
<stop offset="0.705" stop-color="#3D639A"/>
</radialGradient>
<linearGradient id="paint25_linear_848_131379" x1="83.2949" y1="59.0091" x2="93.8165" y2="28.4694" gradientUnits="userSpaceOnUse">
<stop stop-color="#00A6DA" stop-opacity="0"/>
<stop offset="1" stop-color="#3D639A"/>
</linearGradient>
<linearGradient id="paint26_linear_848_131379" x1="115.633" y1="58.6825" x2="115.381" y2="76.5328" gradientUnits="userSpaceOnUse">
<stop stop-color="#223F6B"/>
<stop offset="0.414926" stop-color="#3D639A"/>
<stop offset="0.72748" stop-color="#223F6B" stop-opacity="0.7"/>
</linearGradient>
<linearGradient id="paint27_linear_848_131379" x1="219" y1="58.5" x2="218.245" y2="76.5405" gradientUnits="userSpaceOnUse">
<stop stop-color="#3D639A"/>
<stop offset="0.400462" stop-color="#3D639A" stop-opacity="0.6"/>
<stop offset="0.705" stop-color="#3D639A"/>
</linearGradient>
<radialGradient id="paint28_radial_848_131379" cx="0" cy="0" r="1" gradientUnits="userSpaceOnUse" gradientTransform="translate(78.5681 25.9446) rotate(90) scale(2.97001 74.8023)">
<stop stop-color="#3D639A"/>
<stop offset="0.36" stop-color="#223F6B" stop-opacity="0.7"/>
<stop offset="0.705" stop-color="#3D639A"/>
</radialGradient>
<linearGradient id="paint29_linear_848_131379" x1="67.5" y1="-3" x2="34.1777" y2="33" gradientUnits="userSpaceOnUse">
<stop offset="0.26" stop-color="#223F6B" stop-opacity="0"/>
<stop offset="0.47" stop-color="#223F6B" stop-opacity="0.7"/>
<stop offset="0.705" stop-color="#3D639A"/>
</linearGradient>
</defs>
</svg>
