<svg width="212" height="218" viewBox="0 0 212 218" fill="none" xmlns="http://www.w3.org/2000/svg">
<g style="mix-blend-mode:screen" opacity="0.8">
<path d="M199.309 140.754C186.42 140.076 152.576 142.726 116.265 155.287C81.0566 167.467 45.6882 205.912 6.74716 205.912" stroke="url(#paint0_linear_848_131441)" stroke-width="0.396344"/>
<path d="M208.148 140.051C196.319 135.142 163.629 126.403 124.988 126.133C87.5203 125.871 40.2572 150.172 3.76411 137.259" stroke="url(#paint1_linear_848_131441)" stroke-width="0.396344"/>
<path d="M199.309 139.226C186.42 138.548 151.768 140.506 116.265 153.759C88.2883 164.202 46.8963 201.249 7.10437 200.563" stroke="url(#paint2_linear_848_131441)" stroke-width="0.396344"/>
<path d="M208.709 138.62C196.88 133.711 163.687 124.055 125.549 124.702C95.496 125.212 43.1019 146.203 6.06324 132.365" stroke="url(#paint3_linear_848_131441)" stroke-width="0.396344"/>
<path d="M199.309 137.695C186.42 137.018 150.007 138.933 116.265 152.229C87.7249 163.475 50.8262 196.095 11.0342 195.409" stroke="url(#paint4_linear_848_131441)" stroke-width="0.396344"/>
<path d="M209.272 137.185C197.443 132.277 162.615 121.996 126.111 123.267C95.2358 124.342 48.6777 142.676 11.6391 128.838" stroke="url(#paint5_linear_848_131441)" stroke-width="0.396344"/>
<path d="M199.309 136.164C186.42 135.486 151.768 137.444 116.265 150.697C88.2883 161.141 51.5966 209.28 7.81898 211.459" stroke="url(#paint6_linear_848_131441)" stroke-width="0.396344"/>
<path d="M209.835 135.75C198.006 130.841 164.813 121.185 126.675 121.832C96.6222 122.342 44.5592 155.288 2.73338 142.813" stroke="url(#paint7_linear_848_131441)" stroke-width="0.396344"/>
<path d="M199.309 134.633C186.42 133.955 151.768 135.913 116.265 149.166C88.2883 159.61 53.9051 212.45 15.3214 214.63" stroke="url(#paint8_linear_848_131441)" stroke-width="0.396344"/>
<path d="M210.396 134.316C198.567 129.407 165.373 119.751 127.235 120.398C97.1826 120.908 45.5569 159.025 8.59815 148.273" stroke="url(#paint9_linear_848_131441)" stroke-width="0.396344"/>
<path d="M199.309 132.106C186.42 131.429 151.768 133.386 116.265 146.64C88.2883 157.083 59.9785 213.433 21.752 216.207L8.53354 217" stroke="url(#paint10_linear_848_131441)" stroke-width="0.396344"/>
<path d="M210.958 131.885C199.129 126.976 165.935 117.32 127.797 117.967C97.7446 118.477 50.5216 161.897 13.6793 151.821L1.00066 148.18" stroke="url(#paint11_linear_848_131441)" stroke-width="0.396344"/>
<path d="M200.105 67.4427C187.242 68.4622 153.235 66.8036 116.666 55.1191C86.5223 45.4874 46.3599 16.6191 8.81594 16.03" stroke="url(#paint12_linear_848_131441)" stroke-width="0.396344"/>
<path d="M200.157 69.2093C187.293 70.2288 152.597 69.1914 116.718 56.8857C88.4456 47.1888 51.8747 21.8615 7.50477 20.066" stroke="url(#paint13_linear_848_131441)" stroke-width="0.396344"/>
<path d="M200.21 70.9727C187.347 71.9922 152.65 70.9548 116.771 58.6491C88.499 48.9522 66.7754 30.2249 10.1237 23.9976" stroke="url(#paint14_linear_848_131441)" stroke-width="0.396344"/>
<path d="M200.266 72.9223C187.403 73.9418 152.706 72.9044 116.828 60.5987C88.5553 50.9018 57.0321 14.9203 15.1562 12.8603" stroke="url(#paint15_linear_848_131441)" stroke-width="0.396344"/>
<path d="M200.334 75.1331C187.47 76.1526 152.774 75.1152 116.895 62.8095C88.6226 53.1126 62.6365 10.9687 16.1122 8.8338" stroke="url(#paint16_linear_848_131441)" stroke-width="0.396344"/>
<path d="M200.413 77.938C187.549 78.9574 152.853 77.9201 116.974 65.6144C88.7016 55.9175 74.0422 10.0347 14.5627 4.87368" stroke="url(#paint17_linear_848_131441)" stroke-width="0.396344"/>
<path d="M205.122 88.6646C192.932 92.6987 159.563 99.147 121.084 96.4927C89.3652 94.3046 42.8985 75.86 6.38494 84.1819" stroke="url(#paint18_linear_848_131441)" stroke-width="0.396344"/>
<path d="M205.635 90.3629C193.445 94.3969 159.572 101.61 121.598 98.1909C91.674 95.4964 49.6142 79.6304 6.17368 88.4007" stroke="url(#paint19_linear_848_131441)" stroke-width="0.396344"/>
<path d="M206.148 92.0591C193.958 96.0931 160.084 103.306 122.11 99.8871C92.1864 97.1926 66.2364 84.2017 9.73931 91.589" stroke="url(#paint20_linear_848_131441)" stroke-width="0.396344"/>
<path d="M206.714 93.9338C194.524 97.9678 160.651 105.181 122.677 101.762C92.753 99.0674 52.787 71.6878 11.6924 79.6113" stroke="url(#paint21_linear_848_131441)" stroke-width="0.396344"/>
<path d="M207.359 96.0587C195.169 100.093 161.296 107.306 123.322 103.887C93.3981 101.192 57.1782 66.5333 11.5623 75.4853" stroke="url(#paint22_linear_848_131441)" stroke-width="0.396344"/>
<path d="M207.005 98.9335C194.815 102.968 160.942 110.181 122.968 106.762C93.0441 104.067 66.8129 63.1045 7.85685 72.1943" stroke="url(#paint23_linear_848_131441)" stroke-width="0.396344"/>
</g>
<defs>
<linearGradient id="paint0_linear_848_131441" x1="103.028" y1="205.912" x2="103.028" y2="140.657" gradientUnits="userSpaceOnUse">
<stop stop-color="#3D639A"/>
<stop offset="0.3" stop-color="#223F6B" stop-opacity="0.7"/>
<stop offset="0.705" stop-color="#3D639A"/>
</linearGradient>
<linearGradient id="paint1_linear_848_131441" x1="93.9924" y1="169.186" x2="115.89" y2="107.302" gradientUnits="userSpaceOnUse">
<stop stop-color="#3D639A"/>
<stop offset="0.3" stop-color="#223F6B" stop-opacity="0.7"/>
<stop offset="0.705" stop-color="#3D639A"/>
</linearGradient>
<linearGradient id="paint2_linear_848_131441" x1="103.206" y1="200.572" x2="103.206" y2="139.109" gradientUnits="userSpaceOnUse">
<stop stop-color="#3D639A"/>
<stop offset="0.3" stop-color="#223F6B" stop-opacity="0.7"/>
<stop offset="0.705" stop-color="#3D639A"/>
</linearGradient>
<linearGradient id="paint3_linear_848_131441" x1="96.1207" y1="164.242" x2="116.746" y2="105.954" gradientUnits="userSpaceOnUse">
<stop stop-color="#3D639A"/>
<stop offset="0.3" stop-color="#223F6B" stop-opacity="0.7"/>
<stop offset="0.705" stop-color="#3D639A"/>
</linearGradient>
<linearGradient id="paint4_linear_848_131441" x1="105.171" y1="195.42" x2="105.171" y2="137.578" gradientUnits="userSpaceOnUse">
<stop stop-color="#3D639A"/>
<stop offset="0.3" stop-color="#223F6B" stop-opacity="0.7"/>
<stop offset="0.705" stop-color="#3D639A"/>
</linearGradient>
<linearGradient id="paint5_linear_848_131441" x1="99.8547" y1="160.065" x2="119.265" y2="105.211" gradientUnits="userSpaceOnUse">
<stop stop-color="#3D639A"/>
<stop offset="0.3" stop-color="#223F6B" stop-opacity="0.7"/>
<stop offset="0.705" stop-color="#3D639A"/>
</linearGradient>
<linearGradient id="paint6_linear_848_131441" x1="103.564" y1="211.459" x2="103.564" y2="136.047" gradientUnits="userSpaceOnUse">
<stop stop-color="#3D639A"/>
<stop offset="0.3" stop-color="#223F6B" stop-opacity="0.7"/>
<stop offset="0.705" stop-color="#3D639A"/>
</linearGradient>
<linearGradient id="paint7_linear_848_131441" x1="92.4595" y1="174.563" x2="117.765" y2="103.047" gradientUnits="userSpaceOnUse">
<stop stop-color="#3D639A"/>
<stop offset="0.3" stop-color="#223F6B" stop-opacity="0.7"/>
<stop offset="0.705" stop-color="#3D639A"/>
</linearGradient>
<linearGradient id="paint8_linear_848_131441" x1="107.315" y1="214.63" x2="107.315" y2="134.517" gradientUnits="userSpaceOnUse">
<stop stop-color="#3D639A"/>
<stop offset="0.3" stop-color="#223F6B" stop-opacity="0.7"/>
<stop offset="0.705" stop-color="#3D639A"/>
</linearGradient>
<linearGradient id="paint9_linear_848_131441" x1="94.8088" y1="178.778" x2="121.692" y2="102.804" gradientUnits="userSpaceOnUse">
<stop stop-color="#3D639A"/>
<stop offset="0.3" stop-color="#223F6B" stop-opacity="0.7"/>
<stop offset="0.705" stop-color="#3D639A"/>
</linearGradient>
<linearGradient id="paint10_linear_848_131441" x1="103.921" y1="217" x2="103.921" y2="131.99" gradientUnits="userSpaceOnUse">
<stop stop-color="#3D639A"/>
<stop offset="0.3" stop-color="#223F6B" stop-opacity="0.7"/>
<stop offset="0.705" stop-color="#3D639A"/>
</linearGradient>
<linearGradient id="paint11_linear_848_131441" x1="90.3919" y1="179.811" x2="118.919" y2="99.1928" gradientUnits="userSpaceOnUse">
<stop stop-color="#3D639A"/>
<stop offset="0.3" stop-color="#223F6B" stop-opacity="0.7"/>
<stop offset="0.705" stop-color="#3D639A"/>
</linearGradient>
<linearGradient id="paint12_linear_848_131441" x1="103.631" y1="13.5126" x2="105.132" y2="70.064" gradientUnits="userSpaceOnUse">
<stop stop-color="#3D639A"/>
<stop offset="0.3" stop-color="#223F6B" stop-opacity="0.7"/>
<stop offset="0.705" stop-color="#3D639A"/>
</linearGradient>
<linearGradient id="paint13_linear_848_131441" x1="103.034" y1="17.5296" x2="104.476" y2="71.8662" gradientUnits="userSpaceOnUse">
<stop stop-color="#3D639A"/>
<stop offset="0.3" stop-color="#223F6B" stop-opacity="0.7"/>
<stop offset="0.705" stop-color="#3D639A"/>
</linearGradient>
<linearGradient id="paint14_linear_848_131441" x1="104.403" y1="21.4944" x2="105.786" y2="73.5963" gradientUnits="userSpaceOnUse">
<stop stop-color="#3D639A"/>
<stop offset="0.3" stop-color="#223F6B" stop-opacity="0.7"/>
<stop offset="0.705" stop-color="#3D639A"/>
</linearGradient>
<linearGradient id="paint15_linear_848_131441" x1="106.757" y1="10.4282" x2="108.484" y2="75.4757" gradientUnits="userSpaceOnUse">
<stop stop-color="#3D639A"/>
<stop offset="0.3" stop-color="#223F6B" stop-opacity="0.7"/>
<stop offset="0.705" stop-color="#3D639A"/>
</linearGradient>
<linearGradient id="paint16_linear_848_131441" x1="107.177" y1="6.41592" x2="109.069" y2="77.6728" gradientUnits="userSpaceOnUse">
<stop stop-color="#3D639A"/>
<stop offset="0.3" stop-color="#223F6B" stop-opacity="0.7"/>
<stop offset="0.705" stop-color="#3D639A"/>
</linearGradient>
<linearGradient id="paint17_linear_848_131441" x1="106.342" y1="2.43684" x2="108.414" y2="80.4971" gradientUnits="userSpaceOnUse">
<stop stop-color="#3D639A"/>
<stop offset="0.3" stop-color="#223F6B" stop-opacity="0.7"/>
<stop offset="0.705" stop-color="#3D639A"/>
</linearGradient>
<linearGradient id="paint18_linear_848_131441" x1="97.547" y1="59.2867" x2="112.505" y2="114.061" gradientUnits="userSpaceOnUse">
<stop stop-color="#3D639A"/>
<stop offset="0.3" stop-color="#223F6B" stop-opacity="0.7"/>
<stop offset="0.705" stop-color="#3D639A"/>
</linearGradient>
<linearGradient id="paint19_linear_848_131441" x1="98.0224" y1="63.318" x2="112.395" y2="115.947" gradientUnits="userSpaceOnUse">
<stop stop-color="#3D639A"/>
<stop offset="0.3" stop-color="#223F6B" stop-opacity="0.7"/>
<stop offset="0.705" stop-color="#3D639A"/>
</linearGradient>
<linearGradient id="paint20_linear_848_131441" x1="100.386" y1="66.8346" x2="114.167" y2="117.299" gradientUnits="userSpaceOnUse">
<stop stop-color="#3D639A"/>
<stop offset="0.3" stop-color="#223F6B" stop-opacity="0.7"/>
<stop offset="0.705" stop-color="#3D639A"/>
</linearGradient>
<linearGradient id="paint21_linear_848_131441" x1="99.7642" y1="55.56" x2="116.969" y2="118.563" gradientUnits="userSpaceOnUse">
<stop stop-color="#3D639A"/>
<stop offset="0.3" stop-color="#223F6B" stop-opacity="0.7"/>
<stop offset="0.705" stop-color="#3D639A"/>
</linearGradient>
<linearGradient id="paint22_linear_848_131441" x1="99.119" y1="51.5747" x2="117.967" y2="120.592" gradientUnits="userSpaceOnUse">
<stop stop-color="#3D639A"/>
<stop offset="0.3" stop-color="#223F6B" stop-opacity="0.7"/>
<stop offset="0.705" stop-color="#3D639A"/>
</linearGradient>
<linearGradient id="paint23_linear_848_131441" x1="96.1003" y1="48.0962" x2="116.747" y2="123.703" gradientUnits="userSpaceOnUse">
<stop stop-color="#3D639A"/>
<stop offset="0.3" stop-color="#223F6B" stop-opacity="0.7"/>
<stop offset="0.705" stop-color="#3D639A"/>
</linearGradient>
</defs>
</svg>
