<svg width="201" height="219" viewBox="0 0 201 219" fill="none" xmlns="http://www.w3.org/2000/svg">
<g style="mix-blend-mode:screen" opacity="0.8">
<path d="M11.9629 141.71C24.2375 141.032 56.4698 143.682 91.0523 156.243C124.584 168.423 158.268 206.868 195.355 206.868" stroke="url(#paint0_linear_848_131416)" stroke-width="0.396344"/>
<path d="M3.54406 141.007C14.81 136.098 45.9429 127.359 82.7445 127.089C118.428 126.827 163.44 151.128 198.195 138.215" stroke="url(#paint1_linear_848_131416)" stroke-width="0.396344"/>
<path d="M11.9629 140.182C24.2375 139.504 57.24 141.462 91.0523 154.715C117.697 165.158 157.117 202.205 195.015 201.519" stroke="url(#paint2_linear_848_131416)" stroke-width="0.396344"/>
<path d="M3.00987 139.576C14.2758 134.667 45.8884 125.011 82.2103 125.658C110.832 126.168 160.731 147.159 196.006 133.321" stroke="url(#paint3_linear_848_131416)" stroke-width="0.396344"/>
<path d="M11.9629 138.651C24.2375 137.974 58.9166 139.889 91.0523 153.185C118.233 164.431 153.375 197.051 191.272 196.365" stroke="url(#paint4_linear_848_131416)" stroke-width="0.396344"/>
<path d="M2.47588 138.142C13.7418 133.233 46.9108 122.952 81.6763 124.223C111.082 125.298 155.423 143.632 190.697 129.794" stroke="url(#paint5_linear_848_131416)" stroke-width="0.396344"/>
<path d="M11.9629 137.12C24.2375 136.442 57.2399 138.4 91.0523 151.653C117.696 162.097 152.641 210.236 194.334 212.415" stroke="url(#paint6_linear_848_131416)" stroke-width="0.396344"/>
<path d="M1.94016 136.706C13.2061 131.798 44.8187 122.141 81.1406 122.788C109.762 123.298 159.346 156.244 199.18 143.769" stroke="url(#paint7_linear_848_131416)" stroke-width="0.396344"/>
<path d="M11.9629 135.589C24.2375 134.912 57.2399 136.869 91.0522 150.123C117.696 160.566 150.442 213.406 187.189 215.586" stroke="url(#paint8_linear_848_131416)" stroke-width="0.396344"/>
<path d="M1.40529 135.272C12.6712 130.363 44.2838 120.707 80.6057 121.354C109.227 121.864 158.395 159.981 193.594 149.229" stroke="url(#paint9_linear_848_131416)" stroke-width="0.396344"/>
<path d="M11.9629 133.062C24.2375 132.385 57.2399 134.342 91.0522 147.596C117.696 158.039 144.658 214.389 181.064 217.163L193.653 217.956" stroke="url(#paint10_linear_848_131416)" stroke-width="0.396344"/>
<path d="M0.870347 132.841C12.1363 127.932 43.7489 118.276 80.0708 118.923C108.693 119.433 153.667 162.853 188.755 152.777L200.83 149.136" stroke="url(#paint11_linear_848_131416)" stroke-width="0.396344"/>
<path d="M11.2045 68.3988C23.4553 69.4183 55.843 67.7596 90.6698 56.0752C119.379 46.4434 157.628 17.5752 193.385 16.986" stroke="url(#paint12_linear_848_131416)" stroke-width="0.396344"/>
<path d="M11.1556 70.1654C23.4065 71.1849 56.4508 70.1475 90.6209 57.8418C117.547 48.1449 152.377 22.8176 194.634 21.022" stroke="url(#paint13_linear_848_131416)" stroke-width="0.396344"/>
<path d="M11.1069 71.9288C23.3577 72.9483 56.4021 71.9109 90.5722 59.6052C117.498 49.9083 138.187 31.181 192.141 24.9537" stroke="url(#paint14_linear_848_131416)" stroke-width="0.396344"/>
<path d="M11.051 73.8784C23.3019 74.8979 56.3463 73.8605 90.5164 61.5548C117.443 51.8579 147.465 15.8764 187.346 13.8163" stroke="url(#paint15_linear_848_131416)" stroke-width="0.396344"/>
<path d="M10.9885 76.0892C23.2393 77.1086 56.2837 76.0712 90.4539 63.7656C117.38 54.0686 142.129 11.9247 186.438 9.78986" stroke="url(#paint16_linear_848_131416)" stroke-width="0.396344"/>
<path d="M10.9093 78.894C23.1602 79.9135 56.2046 78.8761 90.3747 66.5704C117.301 56.8735 131.262 10.9907 187.909 5.82974" stroke="url(#paint17_linear_848_131416)" stroke-width="0.396344"/>
<path d="M6.42718 89.6207C18.0367 93.6547 49.8165 100.103 86.463 97.4487C116.672 95.2606 160.926 76.8161 195.701 85.138" stroke="url(#paint18_linear_848_131416)" stroke-width="0.396344"/>
<path d="M5.93769 91.3189C17.5472 95.353 49.8078 102.566 85.9735 99.147C114.472 96.4525 154.529 80.5865 195.901 89.3568" stroke="url(#paint19_linear_848_131416)" stroke-width="0.396344"/>
<path d="M5.45103 93.0151C17.0605 97.0492 49.3212 104.262 85.4868 100.843C113.986 98.1487 138.7 85.1577 192.507 92.5451" stroke="url(#paint20_linear_848_131416)" stroke-width="0.396344"/>
<path d="M4.90937 94.8898C16.5189 98.9239 48.7795 106.137 84.9452 102.718C113.444 100.023 151.507 72.6439 190.644 80.5673" stroke="url(#paint21_linear_848_131416)" stroke-width="0.396344"/>
<path d="M4.2955 97.0148C15.905 101.049 48.1657 108.262 84.3313 104.843C112.83 102.148 147.325 67.4894 190.769 76.4413" stroke="url(#paint22_linear_848_131416)" stroke-width="0.396344"/>
<path d="M4.63431 99.8895C16.2438 103.924 48.5045 111.137 84.6701 107.718C113.169 105.023 138.151 64.0606 194.3 73.1504" stroke="url(#paint23_linear_848_131416)" stroke-width="0.396344"/>
</g>
<defs>
<linearGradient id="paint0_linear_848_131416" x1="103.659" y1="206.868" x2="103.659" y2="141.613" gradientUnits="userSpaceOnUse">
<stop stop-color="#3D639A"/>
<stop offset="0.3" stop-color="#223F6B" stop-opacity="0.7"/>
<stop offset="0.705" stop-color="#3D639A"/>
</linearGradient>
<linearGradient id="paint1_linear_848_131416" x1="112.264" y1="170.142" x2="89.5303" y2="108.956" gradientUnits="userSpaceOnUse">
<stop stop-color="#3D639A"/>
<stop offset="0.3" stop-color="#223F6B" stop-opacity="0.7"/>
<stop offset="0.705" stop-color="#3D639A"/>
</linearGradient>
<linearGradient id="paint2_linear_848_131416" x1="103.489" y1="201.528" x2="103.489" y2="140.065" gradientUnits="userSpaceOnUse">
<stop stop-color="#3D639A"/>
<stop offset="0.3" stop-color="#223F6B" stop-opacity="0.7"/>
<stop offset="0.705" stop-color="#3D639A"/>
</linearGradient>
<linearGradient id="paint3_linear_848_131416" x1="110.237" y1="165.198" x2="88.825" y2="107.568" gradientUnits="userSpaceOnUse">
<stop stop-color="#3D639A"/>
<stop offset="0.3" stop-color="#223F6B" stop-opacity="0.7"/>
<stop offset="0.705" stop-color="#3D639A"/>
</linearGradient>
<linearGradient id="paint4_linear_848_131416" x1="101.617" y1="196.376" x2="101.617" y2="138.534" gradientUnits="userSpaceOnUse">
<stop stop-color="#3D639A"/>
<stop offset="0.3" stop-color="#223F6B" stop-opacity="0.7"/>
<stop offset="0.705" stop-color="#3D639A"/>
</linearGradient>
<linearGradient id="paint5_linear_848_131416" x1="106.683" y1="161.021" x2="86.5318" y2="106.785" gradientUnits="userSpaceOnUse">
<stop stop-color="#3D639A"/>
<stop offset="0.3" stop-color="#223F6B" stop-opacity="0.7"/>
<stop offset="0.705" stop-color="#3D639A"/>
</linearGradient>
<linearGradient id="paint6_linear_848_131416" x1="103.148" y1="212.415" x2="103.148" y2="137.003" gradientUnits="userSpaceOnUse">
<stop stop-color="#3D639A"/>
<stop offset="0.3" stop-color="#223F6B" stop-opacity="0.7"/>
<stop offset="0.705" stop-color="#3D639A"/>
</linearGradient>
<linearGradient id="paint7_linear_848_131416" x1="113.727" y1="175.519" x2="87.4553" y2="104.81" gradientUnits="userSpaceOnUse">
<stop stop-color="#3D639A"/>
<stop offset="0.3" stop-color="#223F6B" stop-opacity="0.7"/>
<stop offset="0.705" stop-color="#3D639A"/>
</linearGradient>
<linearGradient id="paint8_linear_848_131416" x1="99.5758" y1="215.586" x2="99.5758" y2="135.473" gradientUnits="userSpaceOnUse">
<stop stop-color="#3D639A"/>
<stop offset="0.3" stop-color="#223F6B" stop-opacity="0.7"/>
<stop offset="0.705" stop-color="#3D639A"/>
</linearGradient>
<linearGradient id="paint9_linear_848_131416" x1="111.488" y1="179.735" x2="83.5788" y2="104.617" gradientUnits="userSpaceOnUse">
<stop stop-color="#3D639A"/>
<stop offset="0.3" stop-color="#223F6B" stop-opacity="0.7"/>
<stop offset="0.705" stop-color="#3D639A"/>
</linearGradient>
<linearGradient id="paint10_linear_848_131416" x1="102.808" y1="217.956" x2="102.808" y2="132.946" gradientUnits="userSpaceOnUse">
<stop stop-color="#3D639A"/>
<stop offset="0.3" stop-color="#223F6B" stop-opacity="0.7"/>
<stop offset="0.705" stop-color="#3D639A"/>
</linearGradient>
<linearGradient id="paint11_linear_848_131416" x1="115.695" y1="180.767" x2="86.0796" y2="101.058" gradientUnits="userSpaceOnUse">
<stop stop-color="#3D639A"/>
<stop offset="0.3" stop-color="#223F6B" stop-opacity="0.7"/>
<stop offset="0.705" stop-color="#3D639A"/>
</linearGradient>
<linearGradient id="paint12_linear_848_131416" x1="103.085" y1="14.4686" x2="101.508" y2="71.016" gradientUnits="userSpaceOnUse">
<stop stop-color="#3D639A"/>
<stop offset="0.3" stop-color="#223F6B" stop-opacity="0.7"/>
<stop offset="0.705" stop-color="#3D639A"/>
</linearGradient>
<linearGradient id="paint13_linear_848_131416" x1="103.654" y1="18.4856" x2="102.139" y2="72.8184" gradientUnits="userSpaceOnUse">
<stop stop-color="#3D639A"/>
<stop offset="0.3" stop-color="#223F6B" stop-opacity="0.7"/>
<stop offset="0.705" stop-color="#3D639A"/>
</linearGradient>
<linearGradient id="paint14_linear_848_131416" x1="102.352" y1="22.4505" x2="100.9" y2="74.5486" gradientUnits="userSpaceOnUse">
<stop stop-color="#3D639A"/>
<stop offset="0.3" stop-color="#223F6B" stop-opacity="0.7"/>
<stop offset="0.705" stop-color="#3D639A"/>
</linearGradient>
<linearGradient id="paint15_linear_848_131416" x1="100.108" y1="11.3842" x2="98.2945" y2="76.4271" gradientUnits="userSpaceOnUse">
<stop stop-color="#3D639A"/>
<stop offset="0.3" stop-color="#223F6B" stop-opacity="0.7"/>
<stop offset="0.705" stop-color="#3D639A"/>
</linearGradient>
<linearGradient id="paint16_linear_848_131416" x1="99.709" y1="7.37198" x2="97.7226" y2="78.6237" gradientUnits="userSpaceOnUse">
<stop stop-color="#3D639A"/>
<stop offset="0.3" stop-color="#223F6B" stop-opacity="0.7"/>
<stop offset="0.705" stop-color="#3D639A"/>
</linearGradient>
<linearGradient id="paint17_linear_848_131416" x1="100.501" y1="3.3929" x2="98.3245" y2="81.4475" gradientUnits="userSpaceOnUse">
<stop stop-color="#3D639A"/>
<stop offset="0.3" stop-color="#223F6B" stop-opacity="0.7"/>
<stop offset="0.705" stop-color="#3D639A"/>
</linearGradient>
<linearGradient id="paint18_linear_848_131416" x1="108.88" y1="60.2428" x2="93.2845" y2="114.63" gradientUnits="userSpaceOnUse">
<stop stop-color="#3D639A"/>
<stop offset="0.3" stop-color="#223F6B" stop-opacity="0.7"/>
<stop offset="0.705" stop-color="#3D639A"/>
</linearGradient>
<linearGradient id="paint19_linear_848_131416" x1="108.426" y1="64.2741" x2="93.4419" y2="116.531" gradientUnits="userSpaceOnUse">
<stop stop-color="#3D639A"/>
<stop offset="0.3" stop-color="#223F6B" stop-opacity="0.7"/>
<stop offset="0.705" stop-color="#3D639A"/>
</linearGradient>
<linearGradient id="paint20_linear_848_131416" x1="106.176" y1="67.7906" x2="91.8082" y2="117.898" gradientUnits="userSpaceOnUse">
<stop stop-color="#3D639A"/>
<stop offset="0.3" stop-color="#223F6B" stop-opacity="0.7"/>
<stop offset="0.705" stop-color="#3D639A"/>
</linearGradient>
<linearGradient id="paint21_linear_848_131416" x1="106.767" y1="56.5161" x2="88.8286" y2="119.074" gradientUnits="userSpaceOnUse">
<stop stop-color="#3D639A"/>
<stop offset="0.3" stop-color="#223F6B" stop-opacity="0.7"/>
<stop offset="0.705" stop-color="#3D639A"/>
</linearGradient>
<linearGradient id="paint22_linear_848_131416" x1="107.382" y1="52.5307" x2="87.7312" y2="121.06" gradientUnits="userSpaceOnUse">
<stop stop-color="#3D639A"/>
<stop offset="0.3" stop-color="#223F6B" stop-opacity="0.7"/>
<stop offset="0.705" stop-color="#3D639A"/>
</linearGradient>
<linearGradient id="paint23_linear_848_131416" x1="110.258" y1="49.0522" x2="88.7317" y2="124.125" gradientUnits="userSpaceOnUse">
<stop stop-color="#3D639A"/>
<stop offset="0.3" stop-color="#223F6B" stop-opacity="0.7"/>
<stop offset="0.705" stop-color="#3D639A"/>
</linearGradient>
</defs>
</svg>
