<?xml version="1.0" encoding="utf-8"?>
<!-- Generator: Adobe Illustrator 27.6.1, SVG Export Plug-In . SVG Version: 6.00 Build 0)  -->
<svg version="1.1" id="Слой_1" xmlns="http://www.w3.org/2000/svg" xmlns:xlink="http://www.w3.org/1999/xlink" x="0px" y="0px"
	 viewBox="0 0 200 200" style="enable-background:new 0 0 200 200;" xml:space="preserve">
<style type="text/css">
	.st0{clip-path:url(#SVGID_00000153690691629021134160000011522536935289112232_);}
	.st1{fill:#FFFFFF;filter:url(#Adobe_OpacityMaskFilter);}
	.st2{mask:url(#mask0_3196_103110_00000132808593453330490960000011186790237441703576_);}
	.st3{fill:#020101;}
</style>
<g>
	<defs>
		<rect id="SVGID_1_" width="200" height="200"/>
	</defs>
	<clipPath id="SVGID_00000009591344303811533790000016377959056046704558_">
		<use xlink:href="#SVGID_1_"  style="overflow:visible;"/>
	</clipPath>
	<g style="clip-path:url(#SVGID_00000009591344303811533790000016377959056046704558_);">
		<defs>
			<filter id="Adobe_OpacityMaskFilter" filterUnits="userSpaceOnUse" x="33.3" y="12.4" width="152" height="207.5">
				<feColorMatrix  type="matrix" values="1 0 0 0 0  0 1 0 0 0  0 0 1 0 0  0 0 0 1 0"/>
			</filter>
		</defs>
		
			<mask maskUnits="userSpaceOnUse" x="33.3" y="12.4" width="152" height="207.5" id="mask0_3196_103110_00000132808593453330490960000011186790237441703576_">
			<path class="st1" d="M205,1.9H4v218h201V1.9z"/>
		</mask>
		<g class="st2">
			<path class="st3" d="M101.9,12.5c2.5-0.3,8,0.5,10.5,1.3c1.3,0.5,2.4,1.2,3.5,2c-0.9-0.4-1.8-0.7-2.8-0.8
				c0.5,0.4,1.1,0.7,1.7,1.1c-1.5-0.4-2.9-1.3-4.5-1c-0.2,0-0.3,0.1-0.5,0.3c0,0.2,0,0.2,0.1,0.4c0.5,0.6,1.3,0.6,1.9,0.7
				c1,1.1,2.4,1.9,3.6,2.8c0.3,0.2,0.5,0.3,0.8,0.3h0.1c1,0.8,1.5,2.7,1.9,3.9l1.5,0.7c0.3,0.9,0.6,1.9,1,2.8
				c0.2,0.5,0.6,1.3,1.1,1.5c0.2,0,0.5-0.1,0.6,0c0.8,0.3,2.4,2.8,2.9,3.6c-0.4-0.2-0.9-0.6-1.3-0.7c-0.2,0-0.2,0-0.4,0.1
				c0,0.9,1.2,1.5,1.2,2.3c-0.2,0-0.4-0.1-0.6-0.1l-0.1,0.1c0.1,0.7,0.7,1.1,0.9,1.7c0.2,0.9,0,1.8,0.2,2.7c0,0.2,0,0.4,0.2,0.6
				c0.2-0.1,0.4-0.3,0.6-0.4c0.2,0,0.2,0,0.2,0.1c0.1,0.3,0.2,0.7,0.1,1c-0.2,0-0.3,0.1-0.5,0.2c-0.4,0.6-0.2,1.6-0.2,2.3
				c1.5,1.8,0.8,4.2,0.7,6.3c0,0.8,0.1,1.7,0.1,2.5l0.1,0.1l0.1-0.2c0.1-0.4-0.1-1-0.1-1.5l0.6-0.7c0-1-0.2-1.9-0.2-2.9
				c0.1-1.7,0.7-3.3,0.7-5.1c0-0.5,0-1.1-0.1-1.7c-0.1-0.5-0.5-0.9-0.5-1.4l0.3-0.2c0.2-0.3-0.1-0.7-0.1-1s0.1-0.3,0.2-0.5
				c0.3,0,0.3,0,0.6,0.2c1.1,1.7,0,16.3-0.4,18.8c0.2,0.1,0.4,0.1,0.6,0.2c0.3,0.1,0.7,0.5,0.8,0.8c0.1,0.3,0.1,0.5,0,0.7
				c-0.2,0.4-0.7,0.7-1.1,0.9c-1,0.4-1.8,0.1-2.7-0.4c-0.4,0.7-0.9,2.5-1.6,2.9c-0.2-0.1-0.3-0.2-0.4-0.4c-0.5-1.4-0.1-6.9,0.4-8.1
				c0.1-0.2,0.2-0.3,0.5-0.4l0.2-0.1c-0.1-0.3-0.5-0.5-0.7-0.6c0.1-0.3,0.2-0.5,0.2-0.8c0.2-1.2-0.7-5.1-1.1-6.3
				c-0.3-1.1-2-5.4-2.6-6.2c-0.1-0.2-0.2-0.2-0.4-0.3c-0.4,0.7-0.1,2.1-0.2,3c0,0.3-0.1,0.5-0.3,0.7c-0.3-0.1-0.4-0.2-0.5-0.4
				c-0.2-0.3-0.8-0.3-1.1-0.6c-0.8-0.5-1.3-2.1-1.7-3c-1.2-2.2-1.4-1-2.2-1.5c-0.5-0.3-0.9-0.8-1.5-1c-0.1,0.1-0.2,0.1-0.4,0.2
				l-0.1,0.1c-0.6-0.1-1-0.6-1.6-0.7c-2.6-0.8-5.4-1.2-8-2.1c-1.1-0.4-2-1.1-3.1-1.5c0,0.1-0.4,0.3-0.8,0.3
				c-2.1,0.3-5.6-0.7-7.5,0.2c-0.3,0.1-0.6,0.5-0.9,0.7c-0.8-0.1-1.8-0.6-2.6-0.4c-0.1,0.1-0.1,0.2-0.2,0.2c-0.3,0.4-1.5,0.3-2,0.4
				c-0.1-0.1-0.2-0.2-0.4-0.4c-1,0.1-2.2,1.4-3,2c0-0.3,0.1-0.6,0-1l-0.2-0.1c-0.8,0.7-1,2.6-1.5,3.6c-1,2.1-2.4,3.7-3.7,5.6
				c-1.9,2.8-0.6,5.9-1.1,9c-0.1,0.8-1,3.2-0.8,3.8c0,0.2,0.2,0.2,0.3,0.2c0,1.1-0.5,2.3-0.6,3.4c-0.5,2.9,0.3,6.1,0.8,8.9
				c0.2,0.9,0.4,1.9,0.5,2.8c0,0.9-0.6,2.9-0.1,3.6c0.8,1,2.1-0.9,2.9-0.9c0.3,0.7,0.4,1.7,0.6,2.5c0.6,2.5,1.2,5.2,2.5,7.3l1-0.9
				c0.5,1.4,0.1,3.4,0.4,4c0.5,1.1,2.6,1.8,3.6,2.2c-0.3,0-0.6,0-0.9,0c-0.2,0-0.5,0.1-0.6,0.3l0.1,0.2c1.5,0.7,3.4,0.4,4.9,0.3
				c0,1.1-0.2,2.4,0.1,3.5c0.1,0.2,0.2,0.6,0.3,0.7c0.2,0.2,3.9,0.3,4.4,0.7c0.1,0.1,0.2,0.1,0.3,0.2c0.6-0.2,1.1-0.6,1.6-0.9
				c0.8,0,1.7,0,2.5,0.1c0.5,0.1,1.1,0.4,1.5,0.3c0.3-0.2,0.2-0.6,0.4-0.9c0.9,0,2.2,0.7,3.2,0.7c0.3-0.1,0.3-0.2,0.4-0.5
				c0.6-0.3,1.8,0,2.5,0l0.9-1.4c0.2,0.1,0.4,0.2,0.6,0.2c0.3,0,0.4,0,0.6-0.2c0.3-0.6,0-1.3-0.1-1.9c1-0.9,1-1.5,1.1-2.8
				c0.5,0.1,1.2,0.5,1.7,0.5c0.4-0.1,1.3-1.1,1.5-1.4c0.3-0.4,0.6-0.7,0.9-1c-0.2-0.1-0.4-0.3-0.6-0.5c-0.1-0.3-0.1-0.3,0-0.6
				c0.4-0.4,1.2-0.6,1.7-0.7c0.4-0.1,0.5-0.3,0.8-0.6l0.1-0.1l0.1-4.5c0.3,0.3,0.6,0.7,1,0.8c0.4-0.7-0.8-2.2-0.6-3.2
				c0.1-0.3,0.1-0.3,0.3-0.5c0.2,0,0.3,0,0.5,0.1c1.1,0.7,0.8,2.3,1.3,3.2c0.1,0.2,0.2,0.2,0.4,0.3c0.2,0.1,0.2,0.1,0.4,0.2
				c-0.1,0.3-0.3,0.7-0.3,1.1c-0.1,1.2,0.8,3.5,1.2,4.6l1.2-1.6c-0.7,2-1.5,4-2.8,5.5c-0.8,1-1.8,1.9-2.6,2.9
				c-0.8,1.1-1.5,2.3-2.4,3.3l-0.1,0.2c-0.4,0.4-0.8,0.5-1.2,0.7c-1.3,0.8-2.1,2-2.9,3.3c-0.3,0-0.7,0-1,0.2
				c-0.1,0.1-0.1,0.1-0.2,0.3c0.1,0.2,0.2,0.3,0.2,0.6c-0.1,0.1-0.1,0.1-0.2,0.2c-0.3,0.3-0.9,0.5-1.3,0.7
				c-3.2,1.7-8.4,2.1-12.1,1.6c-1.5-0.2-4.3-1.1-5.2-2.3c-0.3,0.5-0.5,1-0.7,1.6c-0.3,1-0.7,4-1.2,4.6c-0.4,0.5-1.3,0-1.9,0.4
				c0,0.2-0.1,0.5-0.1,0.7c-0.3,1.9-3,4.6-4.2,6v-0.1c0,0,0-0.1,0.1-0.1c0.3-1,1-1.7,1.3-2.7c-0.4-1.4,0.6-1.3,0.5-2.4
				c-0.2-0.1-0.4,0.2-0.6,0.3c-0.1-0.1-0.2-0.2-0.3-0.3c-0.3-0.7-0.9-1.7-0.7-2.5c0.1-0.3,0.1-0.4,0.1-0.7l-0.3-0.2
				c0-0.2,0-0.1,0-0.3c0.2-0.6,0.3-1.1,0.4-1.7c0.1-0.4,0.6-0.4,0.9-0.6c0-0.3-0.3-0.6-0.5-0.8c0-0.6,0.1-1.3,0-2
				c-0.1-0.9-0.8-1.8-1-2.7c-0.2-1.2-0.1-2.6-0.1-3.9c-3-2.6-6.1-9.3-7.1-13.4c-0.5-2.1-0.7-4.4-1.1-6.5c-0.1-0.7-0.8-1.1-0.9-1.8
				c0.3-0.2,0.6,0.3,1,0.1c0.7-1.2-0.2-4-0.4-5.4c-1.1-0.4-2.2-1.1-3.1-1.8c0.5,1,1,2.1,1.2,3.2c-1.3-2.3-1.4-4.3-1.4-7
				c0.9-0.5,1.9-0.9,2.8-1.3c0-1.2-0.1-2.3-0.3-3.4c-1-0.8-1.5-1.3-1.7-2.7c0-0.2,0-0.6-0.2-0.8c-0.2-0.4-0.8-0.4-1.1-0.5
				c0.1-0.8,0.2-1.6,0.3-2.4c0.2-2,0.2-4,0.3-5.9c0.1-1.7,0.4-3.4,0.6-5.1c0-0.4,0-2.3,0.3-2.5c0.4-0.3,1.3-0.2,1.8-0.2
				c0.3-0.6,0.6-1.1,1-1.7c-0.4,0.2-0.8,0.5-1.2,0.8c0.5-1.2,1.6-3,1.7-4.4c0-0.3-0.1-0.6-0.2-0.9l0.8-0.8c0-0.5,0-0.9,0-1.4
				c0.6-0.5,1.1-1.1,1.6-1.7c0.7-1,1.2-2,2.1-2.8c0.9,0.5,1.8,1.1,2.6,1.7c-0.2-0.4-0.5-0.7-0.7-1c0.4-0.5,0.8-1.2,1.3-1.5
				c0.6-0.5,1.4-0.4,1.9-1.2c0.1-0.1,0-0.1,0.2-0.1c0.4,0.2,0.6,0.7,0.8,1.1c0.3,0.4,0.5,0.4,0.9,0.5h0.1c0.5-0.3,0.9-0.6,1.3-1
				c0.4,0.3,0.8,0.6,1.1,1c0.2-0.7,0.5-1.1,0.9-1.7c-0.2-0.3-0.5-0.5-0.6-0.8l0.1-0.2c0.5-0.2,1-0.4,1.3-1.1c0.1-0.2,0.1-0.3,0-0.5
				L88.9,16v-0.2l0.2-0.3c0.5-0.3,1.1-0.1,1.6-0.4c1.2-0.5,2.2-1.5,3.6-1.4c0.2,0,0.1,0,0.2,0.1c-0.2,0.5-2.1,1.4-2.7,2.4
				c-0.5,1-0.7,2.3-1,3.4c1.5-1,3-2.1,4.2-3.5c0.4-0.5,0.9-1.3,0.8-2c-0.1-0.3-0.4-0.5-0.7-0.7C97.5,13.1,99.6,12.7,101.9,12.5z"/>
			<path class="st3" d="M93,69.7c0.4,0,0.8,0,1.2,0c1,0.1,3.1,0.8,3.7,1.6l0.5,0.6c1,0.1,1.8-0.6,2.5-1.1c1.6-1.1,3.5-0.7,5.2-0.3
				c-0.6,0.2-1.8,0.7-2.2,1.3c-0.1,0.1-0.1,0.1,0,0.3l0.1,0.1c0.6,0.3,1.6-0.2,2.2-0.4c0.4,0.8,0.8,1.5,1.4,2.2
				c0.4,0.4,0.7,0.7,1.2,0.6c0.1-0.1,0.2-0.2,0.2-0.2c0.4-0.4,1.2,0.4,1.6,0.5c0.3,0.1,0.6-0.1,0.8,0c0.6,0.2,1.1,1,1.7,1.1
				c0.1-0.3,0.1-0.7,0.4-0.9c0.2,0,0.3,0.1,0.5,0.2c0.9,1,0.4,4.9,0.3,6.3c-0.5,0.2-1.3,0.6-1.8,0.6c-0.2,0-0.2,0-0.3-0.2
				c0-0.3,0-0.4-0.1-0.7c-0.7-0.6-2.3-0.3-3.1-0.3l-1.7,1.2c-0.8,0-2,0.1-2.8-0.2c-0.2-0.1-0.1,0-0.2-0.2c0.3-0.5,0.8-0.7,1.2-1
				c0.2-0.2,0.3-0.3,0.3-0.5c-0.2-0.2-0.4-0.2-0.6-0.3l-0.1-0.2c0-0.1,0-0.3,0-0.4c0-0.3-0.1-0.3-0.3-0.5c-2.1-0.3-4.4,0.1-6.5,0.1
				c-1.4,0-2.8-0.3-4.1-0.5c-1.1-0.2-3-0.4-3.9,0.3c0.2,0.6,0.3,1.4,0.5,2c0.3,0.8,1.7,0.4,2.2,1.1c0,0.1,0,0.2,0,0.3
				c-0.1,0.2-0.2,0.4-0.4,0.5c-0.5-0.2-0.7-0.7-1.2-1c-0.4-0.2-1.4,0.5-1.9,0.7c-1-0.9-1.5-2.6-2.6-3.3s-1.8,1.4-2.8,1.4
				c-0.3,0-0.6-0.2-0.8-0.5c-0.3-0.4-0.2-1.2-0.4-1.8c-0.2-0.7-0.8-1.5-0.6-2.3c0.2-0.6,1.2-1,1.8-1.3c1-0.5,4-1.8,4.9-1.4
				c0.1,0,0.2,0,0.4,0c0.6,0,1.5-1,1.9-1.4c1,0,1.8-0.1,2.7-0.6c-0.3-0.4-1-0.9-1.1-1.4L93,69.7z"/>
			<path class="st3" d="M108.8,55.5c0.1,0,0.1,0,0.2,0c0.6,0,1,0.5,1.5,1v0.1h-0.3c0.2,0.3,1.5,0.5,1.9,0.6c1.9,0.5,3.5,1.6,5.1,2.6
				c-2-0.2-4.1-0.3-6.1-0.3c-1.3,0-2.6,0-3.8,0l-0.1,1.7c-0.5-0.1-1-0.2-1.4-0.4c-0.4-0.1-1.1-0.3-1.3-0.7c0.3-0.3,0.7-0.4,1-0.5
				c0.3-0.1,0.4-0.2,0.6-0.4c-0.2-0.3-0.6-0.4-0.9-0.5c0.7-1,1.3-2,2.1-2.9C107.6,55.6,108.2,55.6,108.8,55.5z"/>
			<path class="st3" d="M109.1,50.6c3.8-0.2,5.8,0.4,9,2.6c-2.1,0.4-4.2,0-6.3-0.1c-2.6,0-4.9,1.3-7.4,1.5l-0.2-0.2
				c-0.2-0.7-0.1-1.3,0.1-2C105.8,51.3,107.4,51,109.1,50.6z"/>
			<path class="st3" d="M84.7,48.9c2-0.2,6.8,0.7,8.8,1.6c0.7,0.3,1.9,1.1,2.3,2c0,0.1,0,0.2-0.2,0.3c-0.8,0.5-2.3,0-3.1-0.2
				c-2.4-0.6-4.8-1.3-7.2-1.5c-1.4-0.1-2.8,0-4.2,0c0.4-0.5,0.7-0.9,1-1.5C82.9,49.3,83.8,49,84.7,48.9z"/>
			<path class="st3" d="M87.7,54.3c1.6-0.1,3.4,0,4.8,0.9c1.1,0.7,0.7,0.7,0.7,1.7c0,0.2,0.2,0.6,0.3,0.9c-0.3,0.1-0.6,0.2-0.9,0.4
				c-0.4,0.2-0.6,0.7-1.1,0.8c-0.5-0.3-0.3-1.4-0.6-2h-0.2c-0.5,0.3-0.7,0.8-1,1.3h-1c-0.9,0-1.8-0.1-2.7-0.2
				c-0.8-0.1-1.7-0.5-2.5-0.5c-0.4,0-0.8,0.1-1.2,0.1c-0.2-0.1-0.3-0.2-0.4-0.4c0-0.2,0-0.2,0.1-0.3c0.9-1,5.8-1.4,7.2-1.4
				C88.5,55.2,88,55,87.7,54.3z"/>
			<path class="st3" d="M107,67.9c1.2,0.4,2.4,0.9,3.3,1.8c0.5,0.5,1.3,1.4,1.2,2.2c0,0.3-0.1,0.3-0.2,0.5c-0.3,0-0.3-0.1-0.5-0.3
				c-0.2-0.3-0.6-0.9-1-1c-0.3-0.2-0.6-0.1-0.9,0h-0.1c-0.5-0.3-0.4-1-0.9-1.4c-0.5-0.3-0.9,0-1.4,0.2c-0.5-0.8,0.4-1.2,0.5-1.9
				V67.9z"/>
			<path class="st3" d="M124.1,61.2C124.2,61.2,124.2,61.2,124.1,61.2c0.9,0.6,1.4,2.3,1.5,3.2c0.1,0.5,0.1,1-0.2,1.4
				c-0.5-0.1-0.9-0.3-1.3-0.7c-0.9-0.9,0-2.6,0-3.8V61.2z"/>
			<path class="st3" d="M80.2,99.2c0.2,0.5,0.5,1.1,0.7,1.6c0,0,0,0.1-0.1,0.1c-0.6,0.8-1.3,1.5-2,2.2c-1.9,2-3.2,4.3-2.9,7.3
				c0.1,0.7,0.3,1.5,0.6,2.1c1.3,2.5,4.9,6.5,7,8.3c4.1,3.5,10.7,4.3,15.7,3.6c7.7-1,14.3-5.2,20.5-10.1c0.9-0.7,1.7-1.5,2.6-2.3
				c1.2-0.9,4.1-3,4.8-4c0.2-0.2,0.1-0.5,0.1-0.8l0.1-0.1c0.2,0.1,0.4,0.2,0.5,0.3c0.5,0,1.1-0.8,1.5-1.2c0.1,0.7,0.1,1.3,0.6,1.8
				c0.3,0.1,0.5,0,0.8-0.1c0.4-0.2,0.7-0.6,1-0.9c-0.3,0.9-1.1,2.5-1,3.4c0.1,0.2,0.2,0.4,0.4,0.5v0.3l-0.1,0.1
				c-0.3-0.1-0.7-0.3-1.1-0.3c-0.1,0.2-0.1,0.2,0,0.5c0.4,0.4,1.9,0.5,2,1c-0.1,0.2-0.1,0.2-0.3,0.3c-0.6,0.2-1.1,1.2-1.6,1.7
				c0.5,0,1.4-0.1,1.8,0.3c0.1,0.2,0.1,0.2,0,0.4c-0.3,0.2-0.7,0.4-0.8,0.8l0.1,0.5c-0.2,0.2-0.3,0.3-0.6,0.4
				c-0.1,0.1-0.1,0.2-0.1,0.3c0.3,0.8,1.7,0.9,1.4,2.1c-0.1,0.2-0.2,0.5-0.4,0.7v0.1c0,0,0.1,0,0.1,0.1c0.8,0.5,0.9,1.4,1.2,2.2
				c-0.1,0.2-0.2,0.3-0.3,0.4l0.1,0.1l1.1,0.1c1,0.8,1.8,1.8,2.7,2.6c-0.5,0-1.4-0.2-1.9,0.2v0.2c0.2,0.1,0.4,0.2,0.6,0.3
				c0.6,0.2,0.7,0.7,1,1.3c2.2,0.8,4.5,0.7,6.7,0.9c0.7,0.1,1.3,0.2,2,0.2c0.2-0.2,0.3-0.2,0.4-0.5c0-0.4-0.1-1-0.3-1.2
				c-0.3-0.3-0.7-0.4-1.2-0.4c-0.4,0-0.8,0.1-1.2,0.1c0.5-0.4,1-0.7,1.5-1.2c0.4,0.4,0.9,0.9,1.4,1l0.2-0.1c0.3-0.1,0.5-0.2,0.9-0.2
				c0.3,0.2,0.4,0.4,0.8,0.5c0.5-0.2,0.6-0.9,0.8-1.4c0.7,0.7,1.2,1.1,2.1,1.5c0.2,0.1,0.4,0.2,0.5,0.3c0.1,0.3,0.2,0.6,0.4,0.8
				c0.5,0.1,1.1,0.1,1.6,0.2c0.6,0.2,1.8,1,2.3,1.5v0.2c-0.2,0.1-0.5,0.1-0.7,0.2l-0.1,0.2c0.1,0.3,0.5,0.8,0.8,0.9
				c0.1,0.1,0.3,0,0.4-0.1c0.1-0.1,0.3-0.3,0.4-0.4c0.4,0,0.5,0.5,0.8,0.3c0.2-0.2,0.2-0.3,0.5-0.4c0.1,0.3-0.2,0.8,0,1
				c0.4-0.1,0.7-0.4,1-0.7c2.2,2.8,5,3.3,8.2,4.3c0-0.3-0.1-1,0.1-1.2c0.2-0.2,0.3-0.3,0.6-0.3c0.3,0.4,0.2,1,0.1,1.4
				c0.2,0.2,0.5,0.4,0.8,0.6l-0.4,0.8c0.8,1.3,1.8,2.4,2.8,3.5c0.5,0,1.3-0.1,1.7,0.3c-0.2,0.8-0.2,1,0.2,1.7
				c0.9,1.6,2.2,3.2,3.4,4.5c1,1.1,2,1.8,2.8,3.1c-0.5-1.3-0.6-2.4-0.7-3.8c1,1.6,2.5,4.6,2.1,6.6c-0.3,1.5-0.5,2.6,0.3,4
				c0.1,0.1,0.1,0.2,0.2,0.3c0.3,0.4,0.4,1.4,0.8,1.6h0.1c0-1-1-3.8-0.6-4.6c0.2,0.1,0.3,0.2,0.5,0.5c0.5,0.9,2.4,7.9,2.2,8.8
				c0,0.2-0.1,0.2-0.2,0.3c0,0-0.2,0.1-0.3,0.1c-0.2,0.1-0.4,0.1-0.5,0.3c-0.6,1.1,0.3,3.7,0.6,4.8c0.2,0.5,0.3,0.8,0.6,1.2
				c0.1,0.1,0.1,0.2,0.1,0.4c-0.1,0.3-0.2,0.5-0.2,0.8c0.2,0.3,0.5,0.4,0.7,0.6c0.5,0.6-0.5,0.9,1,1.7l-0.9,1.2
				c-0.1,0.7-0.6,2.1-0.3,2.7l0.4-0.1l0.1,0.1c-0.3,1.1-1.4,2.3-2.2,3.1c-1.6,1.6-3.4,2.9-5.1,4.2c-1.8,1.4-3.5,2.9-5.4,4.1
				c-1,0.6-3.1,1-3.3,2.4c-0.1,0.3,0,0.5,0.1,0.8c0.2,0.5,0.9,0.7,1.4,0.8c1,0.2,2-0.3,2.9-0.8c-2.7,2.6-5.8,4.8-8.8,7.1
				c-0.1-0.8-0.4-1.4-0.7-2.1c-1-1.9-2.2-3.6-3.3-5.4c-1.3-2.1-2.5-4.2-3.9-6.2c-0.9-1.1-1.9-2.1-2.9-3.1c-0.9,2.6-1.8,5.3-2.4,8
				c-0.5,2.3-0.8,4.7-1.2,7c-0.6,3.8-1.2,7.6-1.6,11.5c-6.1,2.9-12.7,5.7-19.1,7.5c-3.7,1-7.4,1.9-11.3,2.6c-1,0.2-5.8,0.6-6.3,1
				H84.9c-0.5-0.3-1.2-0.3-1.8-0.4c-1.8-0.2-3.5-0.5-5.2-0.8c-1.7-0.3-3.5-0.7-5.2-1.1c-2.1-0.5-4.3-1-6.4-1.7
				c-6.3-1.9-12.5-4.5-18.5-7.3l0.6-1.2c-0.1-0.3-0.1-0.6-0.2-1c-0.1-0.3-0.1-0.6-0.1-1c0-0.3-0.1-0.6-0.1-1c0-0.3-0.1-0.7-0.1-1
				c0-0.3,0-0.7-0.1-1c0-0.3,0-0.7,0-1c0-0.3,0-0.7,0-1c0-0.3,0-0.7,0-1c0.1-1.3,0.2-2.7,0.2-4c0-1.5-0.5-3-0.5-4.5
				c-0.1-3.7,0.2-7.4,0-11.2c-1.1-1.1-6.8-4.1-8.2-3.9c-0.3,0-0.5,0.3-0.7,0.5c-2,3-1.8,12-1.9,15.9c-0.1,3.2-0.3,6.4-0.3,9.7
				c-1-0.6-2-1.3-2.9-2c1.4-5.2,1.7-11.5,2.3-16.9c0.4-3.4,1-6.7,1.7-10c-0.9-1.3-2.6-2.9-3-4.5c-0.1-0.6-0.1-1.4,0-2
				c0.2-2.8,0.7-5.7,1-8.5c0.5-4,0.8-8.1,1.3-12.2c0.3-2,0.7-5.6,1.6-7.3h0.2l-0.1-0.1v0.1c0.2,0.9-0.4,3-0.6,4
				c0.3-0.5,0.6-1,0.7-1.6c0.2-0.7,0.2-1.5,0.5-2.1c0.1-0.2,0.2-0.2,0.3-0.3c0.3,0,0.4,0,0.6,0.2c0,0.1,0,0.1,0.1,0.2
				c0.1,0.2,0.1,0.1,0.2,0.4c0.8-0.8,0.8-5.3,2.3-5.7c0.2,0.1,0.2,0.1,0.3,0.3c0.6,1.4-0.1,3,0.2,4.5c0.4-0.2,0.5-0.9,0.6-1.3
				c0.1-0.6,0.2-1.3,0.5-1.8c0.9-1.9,3.1-4.6,4.6-6c0.2,0,0.3-0.1,0.5-0.1c0.3,0,0.5-0.1,0.7-0.4c0.6-0.6,0.9-1.4,1.4-2
				c0.9-1.2,2.3-2.3,3.7-2.8c0.7-0.2,1.5-0.4,2.3-0.6c0.3-0.6,0.6-1.2,1.2-1.4c0.6-0.2,1.4-0.1,2-0.1c-1.5,1.5-1.5,2.8-2.5,4.5
				c-0.5,0.9-1.3,1-1.4,1.3l0.2,0.3c0,0.2-2.2,3.5-2.5,4.2l0.2,0.9c-1,0.6-1.1,0.9-1.4,2.1c-0.2,0.2-0.4,0.3-0.6,0.4
				c-1.3,2.7-3.2,5.2-4.1,8.1c1.9-1.4,2.7-4,4-6c1-1.5,2.3-2.9,3.5-4.3c1.6-1.8,2.9-2.3,4.7-3.6c0.6-0.4,1-0.9,1.6-1.2
				c1.6-0.9,3.3-1.5,4.7-2.8c1-1,1.8-2.3,2.6-3.6c0.8-1.2,1.7-2.4,2.2-3.7c-0.4-0.4-0.7-0.7-1.1-1.1c0.4-0.6,0.8-1.2,1.2-1.9
				c-0.5-2.2-0.6-4.2,0-6.4c0.2,0.7,0.5,2,1.2,2.4c0.3,0.2,0.6,0.2,0.8,0.1c0.4-0.1,0.7-0.4,1-0.7c-0.1-1-0.1-1.9,0-2.8
				c0.3-1.4,1-2.7,1-4.2c1.6-1,3-1.6,4.2-3.1C80.3,100.3,80.2,99.7,80.2,99.2z"/>
			<path class="st3" d="M60.5,115.2c0.1,0.1,0.1,0.1,0.2,0.2c-0.1,0.3-0.5,0.6-0.8,0.8c-1.3,0.9-2.7,1.7-4,2.5
				c-1.8,1.1-3.5,2.4-5.3,3.5c-2.5,1.6-5.4,2.8-7.3,5.1c-1.6,1.8-2.5,4.4-3.4,6.6l-0.2-0.2c-0.1-0.3,0-0.6,0-0.9
				c0.5-2.1,1.6-4.6,3-6.2c1.4-1.6,4.9-3.3,6.8-4.5C53,120,56.8,117.5,60.5,115.2z"/>
			<path class="st3" d="M146.5,111.3c1.1,0.1,7.1,3.4,8.5,4.1c1.5,0.7,3,1.3,4.5,2c0.6,0.3,1.3,0.7,1.8,1.1c1.7,1.2,3.7,4.7,4,6.9
				c-0.1,0-0.1,0-0.2,0c-0.3-0.1-1-1.4-1.2-1.8c-0.9-1.5-1.9-3.3-3.2-4.4c-0.8-0.7-1.7-1.2-2.6-1.7
				C156.5,116.5,147.1,112.7,146.5,111.3z"/>
			<path class="st3" d="M124.9,101.2c0.8,0,1.5,0.1,2.2,0.4c1.3,0.5,2.4,1.3,3.6,1.9c2.7,1.3,5.4,2.5,8,4l0.1,0.2h0.2H139
				c-0.6-0.1-1.1-0.4-1.7-0.6c-3.3-1.5-6.7-3.1-10.2-4.6l-0.1,1.1c-1.5-0.6-2.9-1.2-4.2-2.2C123.6,101.4,124.2,101.3,124.9,101.2z"
				/>
			<path class="st3" d="M104.2,55.2h0.1c0.3,0,0.3,0,0.5,0.3c0,1.2-1,2.6-1.5,3.6l-0.3,0.1l-0.1-0.1v-0.2c0-0.1,0-0.1,0-0.2
				c0-0.1,0-0.1,0-0.3c0-0.6,0.5-2.2,0.8-2.7C103.7,55.6,104,55.4,104.2,55.2z"/>
		</g>
	</g>
</g>
</svg>
