<svg width="304" height="60" viewBox="0 0 304 60" fill="none" xmlns="http://www.w3.org/2000/svg">
<path d="M225.32 11.4402C226.406 11.2024 227.794 11.3292 228.917 11.3247C228.943 11.3634 228.962 11.403 228.982 11.4444C229.379 12.257 229.25 44.3364 229.158 47.5897C229.142 48.1722 229.182 48.3982 228.738 48.8069C227.584 48.7583 226.41 48.796 225.254 48.7946C225.304 48.7159 225.351 48.63 225.386 48.5435C225.691 47.7847 225.611 15.5701 225.498 12.1203C225.49 11.8827 225.417 11.6572 225.32 11.4402Z" fill="white"/>
<path d="M261.999 11.3275C263.276 11.3486 264.553 11.3438 265.83 11.3131C265.929 11.4718 266.001 11.6412 266.047 11.8214C266.381 13.1648 266.118 20.0776 266.118 21.9196C266.122 30.2592 266.376 38.8322 266.101 47.1464C266.088 47.518 266.055 47.7939 265.849 48.1167L266.068 48.6626C265.66 49.0217 261.542 48.7882 260.703 48.7887C260.718 48.69 260.706 48.5906 260.689 48.493C260.598 47.954 243.862 19.9624 242.192 17.387C241.942 17.0009 241.661 16.6867 241.271 16.4285C241.318 16.5222 241.359 16.6184 241.393 16.717C241.612 17.3403 241.539 45.2511 241.439 47.9624C241.428 48.2765 241.367 48.5284 241.22 48.8121C239.991 48.7586 238.747 48.7976 237.516 48.8046C237.556 48.7432 237.592 48.6792 237.623 48.6124C237.85 48.1158 237.871 12.1941 237.568 11.441C238.995 11.2027 240.619 11.3438 242.072 11.3481C242.407 11.5394 242.628 11.7775 242.839 12.0893C244.17 14.0539 245.315 16.1983 246.523 18.2377L253.276 29.6024L258.999 39.2473C259.88 40.7387 260.933 42.2661 261.681 43.8152C261.824 44.1115 261.833 44.4418 261.766 44.759C261.902 44.4833 262.075 44.1678 262.141 43.8699C262.5 42.2468 262.228 35.7755 262.228 33.7632C262.228 26.5736 262.46 19.3188 262.231 12.1366C262.221 11.8235 262.176 11.5949 261.999 11.3275Z" fill="white"/>
<path d="M210.677 11.3549L216.03 11.33C216.1 11.4263 216.15 11.5279 216.18 11.6424C216.513 12.9264 216.248 20.0942 216.248 21.8852L216.246 39.2651C216.245 42.167 216.327 45.0923 216.24 47.9914C216.23 48.3102 216.178 48.5379 216.005 48.816C214.807 48.741 213.576 48.7937 212.374 48.7948C212.451 48.681 212.514 48.5501 212.538 48.4151C212.824 46.8241 212.575 41.4224 212.575 39.3605C212.575 32.7796 212.823 26.0924 212.547 19.5227C212.533 19.1748 212.484 18.9204 212.284 18.6241C212.396 18.4421 212.493 18.2379 212.524 18.0265C212.612 17.4377 212.683 16.2472 212.325 15.7745C211.981 15.9765 211.81 16.3711 211.647 16.7132C210.304 19.5422 209.213 22.588 208.014 25.4839L201.13 42.0604C200.651 43.2243 198.992 47.8845 198.341 48.5739C198.274 48.6455 198.207 48.715 198.133 48.78L194.962 48.7903C194.978 48.7231 194.989 48.6542 194.983 48.585C194.942 48.0611 182.351 18.7798 181.136 16.2921C180.911 15.8304 180.628 15.4741 180.216 15.1566C180.307 15.401 180.379 15.658 180.388 15.9189C180.49 18.8773 180.489 48.094 180.271 48.5836C180.236 48.6642 180.199 48.7429 180.155 48.8196C178.955 48.7437 177.727 48.7942 176.523 48.8012C176.532 48.7853 176.541 48.7694 176.549 48.753C176.781 48.2597 176.875 12.2216 176.601 11.4412C178.304 11.0937 180.466 11.3405 182.222 11.3456C182.643 11.6393 182.868 12.2077 183.068 12.6569C186.02 19.2731 188.771 25.9908 191.615 32.6527L194.731 39.9648C195.257 41.2029 195.888 42.4585 196.298 43.7334C196.389 44.0138 196.388 44.2654 196.275 44.5427C196.456 44.3826 196.642 44.2138 196.792 44.0249C197.678 42.9015 200.039 36.6899 200.828 34.8484C204.068 27.2924 207.518 19.7613 210.549 12.1274C210.656 11.8579 210.716 11.6467 210.677 11.3549Z" fill="white"/>
<path d="M43.1868 11.5849C44.7134 11.2659 46.6856 11.4949 48.2544 11.505C51.4605 11.5257 54.6738 11.5676 57.8785 11.459C57.9129 11.5106 57.9444 11.5626 57.9726 11.6176C58.2021 12.0655 58.3688 36.8178 58.0205 37.8439C61.4727 37.8695 64.9248 37.8774 68.377 37.8676C68.3928 37.9117 68.4028 37.9549 68.4028 38.0015C68.4037 38.7229 66.0431 45.2598 65.4828 45.825C65.502 45.8805 65.5195 45.9388 65.5249 45.9974C65.582 46.6161 64.8668 48.3131 64.4648 48.7879C57.3554 48.6691 50.2199 48.7584 43.1094 48.8008C43.1581 48.7238 43.202 48.6454 43.2385 48.5622C43.4714 48.0305 43.532 15.3019 43.3555 12.2049C43.3435 11.9945 43.2689 11.7787 43.1868 11.5849Z" fill="white"/>
<path d="M274.678 11.442C275.961 11.1797 277.532 11.3468 278.851 11.3536C283 11.375 287.226 11.1522 291.274 12.2168C295.434 13.3115 298.912 15.6038 301.078 19.2838C303.918 24.1058 304.308 31.0324 302.822 36.3197C302.125 38.7978 300.498 42.3795 298.145 43.6856C298.1 43.836 298.034 43.9573 297.919 44.0681C297.087 44.8738 295.933 45.5171 294.901 46.0597C288.6 49.3702 281.54 48.8 274.633 48.7933C274.668 48.7331 274.697 48.6725 274.722 48.6078C275.042 47.8021 274.922 15.0825 274.853 12.0793C274.848 11.8631 274.766 11.6386 274.678 11.442ZM278.303 14.4983C278.737 16.3269 278.412 22.1187 278.407 24.4353C278.392 31.1883 278.524 37.9583 278.401 44.7089C278.395 45.0074 278.384 45.3251 278.214 45.584C278.192 45.6206 278.166 45.6552 278.137 45.6892C283.493 45.844 290.973 45.9944 295.185 42.1184C295.305 42.0079 295.4 41.8522 295.449 41.6991C297.276 40.7048 298.582 37.7611 299.135 35.8663C300.489 31.215 300.306 24.9639 297.838 20.6812C296.18 17.8044 293.615 16.0976 290.382 15.2158C287.088 14.3176 281.677 14.0779 278.303 14.4983Z" fill="white"/>
<path d="M145.186 11.4414L145.419 11.5023C145.475 11.5773 145.529 11.6656 145.557 11.7551C145.716 12.272 145.681 24.0986 145.585 25.3582C145.559 25.6925 145.475 25.9687 145.309 26.2635L145.351 26.2316C145.712 25.9572 145.983 25.6602 146.243 25.295C147.351 23.7358 154.649 12.2211 154.738 11.5064L171.272 11.5017C171.276 11.5483 171.277 11.594 171.273 11.6407C171.22 12.3538 159.693 27.9069 158.439 29.0048C158.515 29.0621 158.589 29.1221 158.66 29.1849C160.041 30.3838 163.102 35.188 164.314 36.8894C166.938 40.5744 169.901 44.3034 172.282 48.1247C172.41 48.3298 172.468 48.5315 172.482 48.7708L169.092 48.7745L155.093 48.7842C155.109 48.7131 155.118 48.6431 155.107 48.5703C155.017 47.9769 147.164 35.169 146.19 33.783C146.075 33.6191 145.946 33.4669 145.803 33.3263C145.659 33.1858 145.503 33.0593 145.336 32.947C145.413 33.0737 145.48 33.2125 145.531 33.3513C145.746 33.9425 145.664 48.3304 145.52 48.6141C145.485 48.6844 145.449 48.7522 145.405 48.8177C140.517 48.5689 135.52 48.7756 130.623 48.8001C130.661 48.7443 130.695 48.6835 130.721 48.6216C130.909 48.1791 130.885 12.0614 130.729 11.7224C130.69 11.6374 130.65 11.5549 130.602 11.4746C135.436 11.5113 140.362 11.712 145.186 11.4414Z" fill="white"/>
<path d="M0.354761 11.5405C5.00089 11.3191 9.74916 11.5281 14.4108 11.5227C18.7705 11.5176 23.3724 11.1926 27.6854 11.6919C29.4788 11.8996 31.296 12.3598 32.9058 13.1668C34.8889 14.1611 36.4843 15.7476 37.1671 17.8425C37.8919 20.0661 37.6838 23.0066 36.5721 25.0816C35.1738 27.6917 32.5836 28.9022 29.8236 29.7481C32.4975 31.069 34.9916 31.607 36.8358 34.1875C38.4958 36.5102 38.437 38.9133 37.9406 41.5761C37.522 43.1129 36.8645 44.4336 35.6893 45.5645C34.0012 47.189 31.6196 48.005 29.3233 48.422C25.6409 49.091 21.6143 48.7646 17.8718 48.7643L0.113678 48.7523L0.111383 25.1315C0.107395 20.8779 -0.142323 16.4818 0.119245 12.2476C0.135827 11.9791 0.202388 11.7671 0.354761 11.5405ZM13.9185 33.4046C13.9773 35.9939 13.9979 38.5835 13.9802 41.1732C16.5886 41.2112 20.1192 41.6874 22.2727 40.0004C22.687 39.5374 23.1168 39.0863 23.4352 38.5531C23.5282 37.2132 23.6739 35.8432 22.685 34.7519C21.8099 33.7864 20.3725 33.5468 19.1168 33.4747C17.4377 33.3784 15.5551 33.6854 13.9185 33.4046ZM13.9455 18.403C14.0008 20.8632 13.9366 23.3261 14.0062 25.785C16.6734 25.8325 19.7979 26.2186 22.0721 24.618C22.7621 23.8131 23.3491 22.9299 23.2522 21.8305C23.1738 20.9434 22.5843 19.9962 21.8845 19.4396C19.9709 17.9174 16.2646 18.3686 13.9455 18.403Z" fill="white"/>
<path d="M125.967 11.4414L126.3 11.6036C126.524 12.6803 126.658 19.5796 126.157 20.3682C118.972 20.2545 111.766 20.3465 104.58 20.3675C104.621 20.4074 104.662 20.4478 104.7 20.491C105.268 21.1292 106.582 25.0265 106.525 25.7929C112.676 25.8776 118.906 25.9929 125.051 25.781C125.131 25.918 125.19 26.0635 125.226 26.2172C125.463 27.2357 125.497 34.0234 125.014 34.7592L109.332 34.7567C109.424 34.8309 109.511 34.9185 109.568 35.022C110.02 35.8371 111.381 39.1605 111.12 39.9829C116.216 40.0038 121.351 40.1327 126.442 39.9441C126.515 40.0477 126.571 40.159 126.612 40.2778C126.917 41.1513 126.858 48.0366 126.472 48.8146C117.681 48.5457 108.807 48.756 100.01 48.7973C100.035 48.741 100.056 48.6846 100.064 48.6235C100.135 48.1359 99.7788 47.6505 99.4985 47.2797C99.7616 46.6682 98.1512 41.5541 97.8024 40.7013C93.7186 40.6988 89.3893 40.959 85.3299 40.6246C84.7533 42.6139 83.7526 47.2153 82.6555 48.8154C81.2367 48.6029 79.5047 48.7549 78.0579 48.7583L68.3047 48.7942C68.373 48.7357 68.4424 48.6662 68.4909 48.5909C69.1269 47.6016 70.5414 42.9983 71.0908 41.4874L78.8225 20.2254C79.2385 19.0806 81.9614 12.3008 81.775 11.4984L109.91 11.5235C115.227 11.5247 120.664 11.7617 125.967 11.4414ZM91.5629 19.9969C91.3402 21.2686 87.8105 31.1374 87.1236 31.8699L91.762 31.9012C92.983 31.8975 94.6875 31.6759 95.8506 31.925C96.0629 30.9804 92.6238 21.4645 91.9645 20.0858L91.5629 19.9969Z" fill="white"/>
</svg>
