<svg width="60" height="60" viewBox="0 0 60 60" fill="none" xmlns="http://www.w3.org/2000/svg">
<path d="M23 29.8C23 29.3226 22.8156 28.8648 22.4874 28.5272C22.1592 28.1896 21.7141 28 21.25 28H17.75C17.2859 28 16.8408 28.1896 16.5126 28.5272C16.1844 28.8648 16 29.3226 16 29.8V33.4C16 33.8774 16.1844 34.3352 16.5126 34.6728C16.8408 35.0104 17.2859 35.2 17.75 35.2H21.25C21.7141 35.2 22.1592 35.0104 22.4874 34.6728C22.8156 34.3352 23 33.8774 23 33.4V29.8ZM23 40.6C23 40.1226 22.8156 39.6648 22.4874 39.3272C22.1592 38.9896 21.7141 38.8 21.25 38.8H17.75C17.2859 38.8 16.8408 38.9896 16.5126 39.3272C16.1844 39.6648 16 40.1226 16 40.6V44.2C16 44.6774 16.1844 45.1352 16.5126 45.4728C16.8408 45.8104 17.2859 46 17.75 46H21.25C21.7141 46 22.1592 45.8104 22.4874 45.4728C22.8156 45.1352 23 44.6774 23 44.2V40.6ZM28.25 28H31.75C32.2141 28 32.6593 28.1896 32.9874 28.5272C33.3156 28.8648 33.5 29.3226 33.5 29.8V33.4C33.5 33.8774 33.3156 34.3352 32.9874 34.6728C32.6593 35.0104 32.2141 35.2 31.75 35.2H28.25C27.7859 35.2 27.3408 35.0104 27.0126 34.6728C26.6844 34.3352 26.5 33.8774 26.5 33.4V29.8C26.5 29.3226 26.6844 28.8648 27.0126 28.5272C27.3408 28.1896 27.7859 28 28.25 28ZM31.75 38.8H28.25C27.7859 38.8 27.3408 38.9896 27.0126 39.3272C26.6844 39.6648 26.5 40.1226 26.5 40.6V44.2C26.5 44.6774 26.6844 45.1352 27.0126 45.4728C27.3408 45.8104 27.7859 46 28.25 46H31.75C32.2141 46 32.6593 45.8104 32.9874 45.4728C33.3156 45.1352 33.5 44.6774 33.5 44.2V40.6C33.5 40.1226 33.3156 39.6648 32.9874 39.3272C32.6593 38.9896 32.2141 38.8 31.75 38.8ZM37 29.8C37 29.3226 37.1844 28.8648 37.5126 28.5272C37.8407 28.1896 38.2859 28 38.75 28H42.25C42.7141 28 43.1593 28.1896 43.4874 28.5272C43.8156 28.8648 44 29.3226 44 29.8V33.4C44 33.8774 43.8156 34.3352 43.4874 34.6728C43.1593 35.0104 42.7141 35.2 42.25 35.2H38.75C38.2859 35.2 37.8407 35.0104 37.5126 34.6728C37.1844 34.3352 37 33.8774 37 33.4V29.8Z" fill="#0A0A0A"/>
<path fill-rule="evenodd" clip-rule="evenodd" d="M17.5 3C17.9736 3 18.4278 3.18964 18.7627 3.52721C19.0976 3.86477 19.2857 4.32261 19.2857 4.8V6.6H40.7143V4.8C40.7143 4.32261 40.9024 3.86477 41.2373 3.52721C41.5722 3.18964 42.0264 3 42.5 3C42.9736 3 43.4278 3.18964 43.7627 3.52721C44.0976 3.86477 44.2857 4.32261 44.2857 4.8V6.6C50.2143 6.6 55 11.424 55 17.4V46.2C55 52.176 50.2143 57 44.2857 57H15.7143C9.78571 57 5 52.176 5 46.2V17.4C5 11.424 9.78571 6.6 15.7143 6.6V4.8C15.7143 4.32261 15.9024 3.86477 16.2373 3.52721C16.5722 3.18964 17.0264 3 17.5 3ZM51.4286 17.4V21H8.57143V17.4C8.57143 13.44 11.7679 10.2 15.7143 10.2V12C15.7143 12.4774 15.9024 12.9352 16.2373 13.2728C16.5722 13.6104 17.0264 13.8 17.5 13.8C17.9736 13.8 18.4278 13.6104 18.7627 13.2728C19.0976 12.9352 19.2857 12.4774 19.2857 12V10.2H40.7143V12C40.7143 12.4774 40.9024 12.9352 41.2373 13.2728C41.5722 13.6104 42.0264 13.8 42.5 13.8C42.9736 13.8 43.4278 13.6104 43.7627 13.2728C44.0976 12.9352 44.2857 12.4774 44.2857 12V10.2C48.2143 10.2 51.4286 13.422 51.4286 17.4ZM8.57143 46.2V24.6H51.4286V46.2C51.4286 50.16 48.2321 53.4 44.2857 53.4H15.7143C11.7857 53.4 8.57143 50.178 8.57143 46.2Z" fill="#0A0A0A"/>
</svg>
