<svg width="187" height="42" viewBox="0 0 187 42" fill="none" xmlns="http://www.w3.org/2000/svg">
<g clip-path="url(#clip0_848_115955)">
<path d="M0.0390625 28.1885H10.9978C14.921 28.1885 18.7649 27.7046 18.7649 22.9599C18.7649 21.0727 17.1409 19.025 14.5169 18.6761V18.6226C17.0335 17.9757 18.4145 16.6004 18.4145 14.0153C18.4145 10.4319 15.1947 9.38009 11.9211 9.38009H0.04162V28.1911L0.0390625 28.1885ZM6.85729 20.4538H8.80608C10.159 20.4538 11.5119 20.7492 11.5119 22.3664C11.5119 23.8207 10.0771 24.3071 8.75238 24.3071H6.85729V20.4538ZM6.85729 12.9355H8.83166C10.1309 12.9355 11.3201 13.3659 11.3201 14.7692C11.3201 16.1725 9.93904 16.5749 8.66798 16.5749H6.85473V12.938H6.85729V12.9355ZM21.0922 28.1885H31.5088L33.4422 22.6364H28.3452V9.37755H21.0922V28.1885ZM33.3246 28.1885H40.442L41.6594 24.1187H47.7487L48.9124 28.1885H61.9274V23.6602H54.4314L53.5107 21.1007H61.2496V16.5724H52.1041L51.2371 13.9033H61.7356V9.375H40.0073L33.322 28.186H33.3246V28.1885ZM44.7974 13.5824H44.8511L46.8818 19.5904H42.6594L44.7974 13.5824ZM71.1547 9.37755H63.9017V28.1885H71.1547V20.2118H71.2084L75.9168 28.1885H84.5764L77.6226 18.1896L83.983 9.37755H75.7301L71.211 16.7608H71.1573V9.37755H71.1547ZM86.2004 28.1885H97.1591C101.082 28.1885 104.926 27.7046 104.926 22.9599C104.926 21.0727 103.302 19.025 100.678 18.6761V18.6226C103.195 17.9757 104.576 16.6004 104.576 14.0153C104.576 10.4319 101.356 9.38009 98.0824 9.38009H86.2029V28.1911L86.2004 28.1885ZM93.0186 20.4538H94.9674C96.3203 20.4538 97.6732 20.7492 97.6732 22.3664C97.6732 23.8207 96.2384 24.3071 94.9137 24.3071H93.0186V20.4538ZM93.0186 12.9355H94.993C96.2921 12.9355 97.4839 13.3659 97.4839 14.7692C97.4839 16.1725 96.1029 16.5749 94.8318 16.5749H93.0186V12.938V12.9355ZM107.279 9.37755V28.1885H114.532V9.37755H107.279ZM136.207 9.37755H116.182V14.9297H122.568V28.1885H129.821V14.9297H136.207V9.37755Z" fill="white"/>
<path d="M153.797 29.4522L164.249 26.0547L172.142 29.4522H153.797Z" fill="white"/>
<path d="M149.98 3.80783L148.341 1.82129L139.262 26.3907L147.937 18.6763L149.98 3.80783Z" fill="white"/>
<path d="M136.977 6.38239L146.056 4.61743L147.222 1.3702L144.263 0L140.907 3.88903L136.977 6.38239Z" fill="white"/>
<path d="M142.918 25.9728L147.984 30.8067L183.999 14.1045H153.851L142.918 25.9728Z" fill="white"/>
<path d="M3.29779 35.8343L3.19038 36.6085C2.75049 36.4405 2.36431 36.3564 2.03184 36.3564C1.80934 36.3564 1.61242 36.3921 1.44618 36.4634C1.27995 36.5347 1.14951 36.634 1.05745 36.7614C0.965376 36.8887 0.919342 37.039 0.919342 37.2096C0.919342 37.477 1.01397 37.6808 1.20322 37.8234C1.39247 37.9635 1.72239 38.157 2.19808 38.4015C2.67377 38.646 3.02926 38.8956 3.2671 39.1452C3.50495 39.3973 3.62515 39.7284 3.62515 40.1436C3.62515 40.5052 3.53819 40.8261 3.36173 41.1114C3.18782 41.3966 2.93975 41.6156 2.6175 41.7684C2.29526 41.9213 1.92699 41.9977 1.51012 41.9977C1.01908 41.9977 0.548508 41.9162 0.103508 41.7532L0.193019 40.9229C0.648249 41.1394 1.05233 41.2463 1.40526 41.2463C1.65589 41.2463 1.87839 41.203 2.07276 41.119C2.26713 41.035 2.41546 40.9127 2.52032 40.7574C2.62518 40.5994 2.67633 40.4135 2.67633 40.1996C2.67633 39.894 2.57147 39.6622 2.36431 39.5043C2.15716 39.3464 1.82469 39.1605 1.37201 38.944C0.919342 38.7275 0.57664 38.5034 0.34391 38.2691C0.11118 38.0373 -0.00390625 37.7088 -0.00390625 37.2835C-0.00390625 36.9524 0.0779329 36.6595 0.239054 36.4073C0.400175 36.1527 0.630347 35.9566 0.927014 35.8139C1.22368 35.6713 1.56383 35.6025 1.94233 35.6025C2.42314 35.6025 2.87325 35.6764 3.29523 35.8267L3.29779 35.8343Z" fill="white"/>
<path d="M19.1904 35.6106C19.8119 35.6106 20.3489 35.7455 20.8042 36.0181C21.2594 36.2906 21.6021 36.6675 21.8374 37.1489C22.0727 37.6302 22.1903 38.1829 22.1903 38.8043C22.1903 39.2908 22.1213 39.7314 21.9832 40.1261C21.8451 40.5209 21.6456 40.8596 21.3847 41.1372C21.1238 41.4174 20.8118 41.6313 20.4461 41.7765C20.0804 41.9242 19.6712 41.998 19.216 41.998C18.5971 41.998 18.06 41.8605 17.6048 41.5855C17.1495 41.3104 16.8043 40.9309 16.5664 40.4445C16.3286 39.958 16.2109 39.413 16.2109 38.8018C16.2109 38.3433 16.2774 37.918 16.4104 37.5283C16.5434 37.1387 16.7352 36.8025 16.991 36.5172C17.2442 36.232 17.5587 36.0079 17.9347 35.8474C18.3106 35.687 18.73 35.6055 19.1904 35.6055V35.6106ZM19.1802 36.3059C18.7838 36.3059 18.4334 36.4103 18.1239 36.6191C17.8145 36.828 17.5766 37.1234 17.4078 37.5029C17.2416 37.8823 17.1572 38.3153 17.1572 38.7992C17.1572 39.1558 17.2058 39.492 17.3055 39.8078C17.4053 40.1236 17.5459 40.3935 17.7301 40.6177C17.9142 40.8418 18.1316 41.0124 18.3797 41.1321C18.6277 41.2518 18.904 41.3104 19.2057 41.3104C19.5075 41.3104 19.7735 41.2493 20.0216 41.1296C20.2696 41.0099 20.487 40.8367 20.6737 40.61C20.8604 40.3833 21.0011 40.1236 21.0957 39.8281C21.1929 39.5327 21.2415 39.2016 21.2415 38.8349C21.2415 38.4503 21.1929 38.1039 21.0957 37.7958C20.9985 37.4876 20.8579 37.2202 20.6737 36.996C20.4896 36.7719 20.2696 36.5987 20.0165 36.4816C19.7633 36.3644 19.4845 36.3059 19.1802 36.3059Z" fill="white"/>
<path d="M38.4844 35.7217V36.4781H36.0855V38.3118H38.3923V39.0606H36.0855V41.8774H35.2031V35.7217H38.4844Z" fill="white"/>
<path d="M55.4919 35.7217V36.4781H53.5559V41.8774H52.6736V36.4781H50.6992V35.7217H55.4919Z" fill="white"/>
<path d="M76.1123 35.7223L74.2581 41.878H73.1354L72.0638 37.8362C72.0152 37.7063 71.9717 37.5662 71.9359 37.4159C71.9001 37.2657 71.8592 37.0899 71.8183 36.8887C71.7773 36.6875 71.7441 36.5347 71.7211 36.4328C71.583 37.1179 71.4807 37.584 71.4142 37.8336L70.3963 41.8754H69.2557L67.3555 35.7197H68.3196L69.3861 39.321C69.583 39.9831 69.7263 40.5485 69.8209 41.0197C69.8746 40.6988 69.936 40.3932 70.0025 40.1003C70.0689 39.8074 70.138 39.54 70.2096 39.2929L71.0996 35.7197H72.3656L73.3118 39.321C73.34 39.4228 73.3962 39.6597 73.4857 40.0341C73.5752 40.4085 73.6571 40.7345 73.7364 41.0223C73.8157 40.5409 73.9512 39.9755 74.143 39.3235L75.2018 35.7223H76.1123Z" fill="white"/>
<path d="M92.8035 35.7217L95.4812 41.8774H94.4864L93.8393 40.3187H90.8368L90.2 41.8774H89.2461L91.8777 35.7217H92.8035ZM93.5324 39.57L92.8214 37.8534C92.6808 37.5248 92.5734 37.2676 92.5043 37.0791C92.4353 36.8907 92.3739 36.692 92.3202 36.4781C92.2741 36.6436 92.2204 36.8066 92.1591 36.9722C92.0977 37.1352 91.9775 37.4357 91.7985 37.8712L91.1156 39.57H93.5299H93.5324Z" fill="white"/>
<path d="M108.096 35.7217H109.58C109.95 35.7217 110.229 35.7319 110.413 35.7548C110.598 35.7777 110.787 35.821 110.976 35.8872C111.186 35.956 111.365 36.0604 111.516 36.2005C111.667 36.3406 111.784 36.5087 111.871 36.7073C111.956 36.906 111.999 37.1174 111.999 37.344C111.999 37.7413 111.881 38.0622 111.649 38.3118C111.416 38.5589 111.096 38.7193 110.69 38.7881C110.887 38.8823 111.032 38.9816 111.129 39.0886C111.227 39.1956 111.337 39.3764 111.459 39.6362L112.498 41.8799H111.485L110.69 40.0335C110.569 39.7584 110.465 39.5598 110.372 39.4401C110.28 39.3204 110.17 39.2414 110.04 39.2007C109.91 39.1599 109.723 39.1395 109.482 39.1395H108.976V41.8799H108.094V35.7242L108.096 35.7217ZM108.979 36.4781V38.3806H109.526C110.567 38.3806 111.089 38.0597 111.089 37.4204C111.089 37.0359 110.953 36.7837 110.679 36.6615C110.406 36.5392 110.053 36.4781 109.615 36.4781H108.979Z" fill="white"/>
<path d="M128.705 35.7217V36.4781H126.148V38.2864H128.519V39.0428H126.148V41.1286H128.777V41.8774H125.266V35.7217H128.705Z" fill="white"/>
<path d="M179.722 12.1053C181.404 12.1053 182.775 10.7402 182.775 9.06437C182.775 7.38855 181.404 6.02344 179.722 6.02344C178.039 6.02344 176.668 7.38855 176.668 9.06437C176.668 10.7402 178.039 12.1053 179.722 12.1053ZM179.722 11.5144C178.445 11.5144 177.412 10.4855 177.412 9.06437C177.412 7.64323 178.445 6.61176 179.722 6.61176C180.998 6.61176 182.031 7.64068 182.031 9.06437C182.031 10.4881 181 11.5144 179.722 11.5144ZM178.545 10.7733H179.187V9.29104H179.576L180.473 10.7733H181.133L180.202 9.26557C180.77 9.21463 181.108 8.92939 181.108 8.33852C181.108 7.61522 180.66 7.32742 179.832 7.32742H178.545V10.7733ZM179.187 7.81642H179.763C180.092 7.81642 180.466 7.88263 180.466 8.28758C180.466 8.75111 180.136 8.80204 179.755 8.80204H179.187V7.81642Z" fill="white"/>
</g>
<defs>
<clipPath id="clip0_848_115955">
<rect width="187" height="42" fill="white"/>
</clipPath>
</defs>
</svg>
