<svg width="70" height="70" viewBox="0 0 70 70" fill="none" xmlns="http://www.w3.org/2000/svg">
<path fill-rule="evenodd" clip-rule="evenodd" d="M11 15.8571V40.1429C11 42.8143 13.15 45 15.7778 45H49.2222C51.85 45 54 42.8143 54 40.1429V15.8571C54 13.1857 51.85 11 49.2222 11H15.7778C13.15 11 11 13.1857 11 15.8571ZM16.1667 15H48.8333C49.5333 15 50 15.4727 50 16.1818V39.8182C50 40.5273 49.5333 41 48.8333 41H16.1667C15.4667 41 15 40.5273 15 39.8182V16.1818C15 15.4727 15.4667 15 16.1667 15Z" fill="white"/>
<path d="M52.2 46H13.8C11.16 46 9 43.75 9 41H57C57 43.75 54.84 46 52.2 46Z" fill="white"/>
<path d="M35 54.25V25.75C35 23.1375 37.16 21 39.8 21H54.2C56.84 21 59 23.1375 59 25.75V54.25C59 56.8625 56.84 59 54.2 59H39.8C37.16 59 35 56.8625 35 54.25Z" fill="white"/>
<path d="M47 58C48.1046 58 49 57.1046 49 56C49 54.8954 48.1046 54 47 54C45.8954 54 45 54.8954 45 56C45 57.1046 45.8954 58 47 58Z" fill="#0A0A0A"/>
<rect x="38" y="24" width="18" height="28" rx="2" fill="#0A0A0A"/>
</svg>
