<svg width="16" height="16" viewBox="0 0 16 16" fill="none" xmlns="http://www.w3.org/2000/svg">
<path fill-rule="evenodd" clip-rule="evenodd" d="M7.97552 0.191406C3.57184 0.191406 0 3.76327 0 8.16694C0 11.6899 2.29968 14.6746 5.43121 15.751C5.82263 15.8 5.96942 15.5553 5.96942 15.3596V13.9896C3.76758 14.4789 3.27826 12.9131 3.27826 12.9131C2.93579 11.9835 2.39758 11.7388 2.39758 11.7388C1.66364 11.2495 2.44647 11.2495 2.44647 11.2495C3.22937 11.2984 3.66974 12.0813 3.66974 12.0813C4.40369 13.3046 5.52905 12.962 5.96942 12.7663C6.01837 12.2281 6.263 11.8856 6.45874 11.6899C4.69727 11.4942 2.83789 10.8091 2.83789 7.72657C2.83789 6.84584 3.13147 6.16082 3.66974 5.57367L3.66687 5.56509L3.66687 5.56509C3.61047 5.39687 3.33515 4.57571 3.76758 3.51862C3.76758 3.51862 4.45258 3.32291 5.96942 4.35043C6.60553 4.15471 7.29053 4.10578 7.97552 4.10578C8.66052 4.10578 9.34558 4.20364 9.98163 4.35043C11.4985 3.32291 12.1835 3.51862 12.1835 3.51862C12.5892 4.51051 12.3719 5.29467 12.297 5.56488L12.297 5.56489L12.2969 5.56527C12.2905 5.58814 12.2852 5.60731 12.2814 5.6226C12.7706 6.16082 13.1132 6.89477 13.1132 7.77551C13.1132 10.8581 11.2538 11.4942 9.49237 11.6899C9.78595 11.9345 10.0306 12.4238 10.0306 13.1578V15.3596C10.0306 15.5553 10.1774 15.8 10.5688 15.751C13.7492 14.6746 16 11.6899 16 8.16694C15.951 3.76327 12.3792 0.191406 7.97552 0.191406Z" fill="white"/>
</svg>
