<svg width="18" height="18" viewBox="0 0 18 18" fill="none" xmlns="http://www.w3.org/2000/svg">
<path fill-rule="evenodd" clip-rule="evenodd" d="M12.4002 0.699219H5.6002C4.7002 0.699219 4.1002 0.89922 3.6002 1.09922C3.1002 1.29922 2.6002 1.59922 2.1002 2.09922C1.6002 2.59922 1.4002 2.99922 1.1002 3.59922C0.900196 4.09922 0.800195 4.69922 0.700195 5.59922V12.3992C0.700195 13.2992 0.900196 13.8992 1.1002 14.3992C1.3002 14.8992 1.6002 15.3992 2.1002 15.8992C2.6002 16.3992 3.0002 16.5992 3.6002 16.8992C4.1002 17.0992 4.7002 17.1992 5.6002 17.2992H12.4002C13.3002 17.2992 13.9002 17.0992 14.4002 16.8992C14.9002 16.6992 15.4002 16.3992 15.9002 15.8992C16.4002 15.3992 16.6002 14.9992 16.9002 14.3992C17.1002 13.8992 17.2002 13.2992 17.3002 12.3992V5.59922C17.3002 4.69922 17.1002 4.09922 16.9002 3.59922C16.7002 3.09922 16.4002 2.59922 15.9002 2.09922C15.4002 1.59922 15.0002 1.39922 14.4002 1.09922C13.9002 0.89922 13.3002 0.799219 12.4002 0.699219ZM12.4002 2.19922H5.6002C4.8002 2.29922 4.4002 2.39922 4.1002 2.49922C3.7002 2.59922 3.4002 2.79922 3.1002 3.09922C2.86281 3.33661 2.75065 3.57399 2.61508 3.86092L2.615 3.86109L2.61499 3.86111L2.61499 3.86112L2.61499 3.86112C2.57929 3.93668 2.54186 4.01588 2.5002 4.09922C2.48473 4.14563 2.46686 4.19443 2.44772 4.24674C2.3431 4.53255 2.2002 4.92298 2.2002 5.59922V12.3992C2.3002 13.1992 2.4002 13.5992 2.5002 13.8992C2.6002 14.2992 2.8002 14.5992 3.1002 14.8992C3.33758 15.1366 3.57497 15.2488 3.8619 15.3843C3.93758 15.4201 4.01671 15.4575 4.1002 15.4992C4.14661 15.5147 4.19541 15.5326 4.24771 15.5517C4.53353 15.6563 4.92395 15.7992 5.6002 15.7992H12.4002C13.2002 15.6992 13.6002 15.5992 13.9002 15.4992C14.3002 15.3992 14.6002 15.1992 14.9002 14.8992C15.1376 14.6618 15.2497 14.4244 15.3853 14.1375L15.3854 14.1374C15.4211 14.0618 15.4585 13.9826 15.5002 13.8992C15.5157 13.8528 15.5335 13.804 15.5527 13.7517C15.6573 13.4659 15.8002 13.0755 15.8002 12.3992V5.59922C15.7002 4.79922 15.6002 4.39922 15.5002 4.09922C15.4002 3.69922 15.2002 3.39922 14.9002 3.09922C14.6628 2.86183 14.4254 2.74967 14.1385 2.61411C14.0629 2.5784 13.9835 2.54089 13.9002 2.49922C13.8538 2.48375 13.805 2.46589 13.7527 2.44674C13.4669 2.34213 13.0764 2.19922 12.4002 2.19922ZM9.0002 4.69922C6.6002 4.69922 4.7002 6.59922 4.7002 8.99922C4.7002 11.3992 6.6002 13.2992 9.0002 13.2992C11.4002 13.2992 13.3002 11.3992 13.3002 8.99922C13.3002 6.59922 11.4002 4.69922 9.0002 4.69922ZM14.4002 4.59922C14.4002 5.1515 13.9525 5.59922 13.4002 5.59922C12.8479 5.59922 12.4002 5.1515 12.4002 4.59922C12.4002 4.04693 12.8479 3.59922 13.4002 3.59922C13.9525 3.59922 14.4002 4.04693 14.4002 4.59922ZM9.0002 11.7992C7.5002 11.7992 6.2002 10.5992 6.2002 8.99922C6.2002 7.49922 7.4002 6.19922 9.0002 6.19922C10.5002 6.19922 11.8002 7.39922 11.8002 8.99922C11.8002 10.4992 10.5002 11.7992 9.0002 11.7992Z" fill="white"/>
</svg>
