<svg width="54" height="31" viewBox="0 0 54 31" fill="none" xmlns="http://www.w3.org/2000/svg">
<path d="M10.7882 0.261719C11.0328 0.457889 11.4483 0.597131 11.7367 0.731095L13.6622 1.6285C13.2824 2.68652 12.9464 3.79398 12.5061 4.82661C10.3866 5.26287 8.25208 5.62901 6.13464 6.07539C5.2921 6.21727 4.4269 6.3775 3.59766 6.58197C3.89605 6.36229 4.23197 6.17373 4.54517 5.97486L6.42576 4.78043C6.75471 4.57131 7.11528 4.37112 7.41776 4.12594C7.82061 3.79951 8.15258 3.32775 8.49087 2.93208C9.25205 2.04183 9.99678 1.12469 10.7882 0.261719Z" fill="white"/>
<path d="M30.2936 25.9209C30.6225 26.0055 30.9546 26.1858 31.2661 26.3215L33.122 27.1268L36.3275 28.514C36.9044 28.7636 37.5032 28.9918 38.0635 29.2751C36.8383 29.2168 35.5971 29.2554 34.3695 29.2555L27.853 29.2572L23.3715 29.2548C22.2694 29.2545 21.164 29.2361 20.0625 29.2732C20.4578 29.1079 20.8812 28.9948 21.2888 28.8623L23.4742 28.1478L30.2936 25.9209Z" fill="white"/>
<path d="M14.7443 2.08789C15.0395 2.31428 16.0537 3.64205 16.3535 4.02402C16.2571 5.02869 16.087 6.03568 15.9493 7.03639L15.1912 12.566L14.6502 16.5395C14.5554 17.2376 14.4971 17.9722 14.3452 18.6588C14.0655 18.9396 13.7513 19.1975 13.4554 19.4621L11.7608 20.977L6.73791 25.465L5.82422 26.2925C6.26202 25.3431 6.58163 24.3089 6.94157 23.3259L8.85366 18.1229L14.7443 2.08789Z" fill="white"/>
<path d="M49.4211 14.1529C49.4592 14.1466 49.491 14.1506 49.5292 14.1538C49.4963 14.28 48.8715 14.5175 48.7358 14.5803L23.2195 26.4817L17.0807 29.3428L15.4987 30.079C15.1483 30.2424 14.7298 30.3947 14.4236 30.63C14.1764 30.3263 13.8527 30.0556 13.5696 29.7838L12.0125 28.2909C11.1584 27.4717 10.3157 26.6369 9.44531 25.8352L16.1438 18.5236C17.4759 17.0685 18.7961 15.5997 20.1466 14.1618C21.0835 14.1244 22.0314 14.1532 22.9698 14.1532L28.2646 14.1533L42.3354 14.1533C44.6955 14.1534 47.0614 14.1892 49.4211 14.1529Z" fill="white"/>
</svg>
