<svg width="47" height="31" viewBox="0 0 47 31" fill="none" xmlns="http://www.w3.org/2000/svg">
<g clip-path="url(#clip0_1083_12309)">
<path d="M8.0038 0.774414C8.24214 0.966157 8.64711 1.10226 8.9282 1.2332L10.8048 2.11035C10.4346 3.14449 10.1071 4.22696 9.67802 5.23628C7.61241 5.6627 5.53217 6.02057 3.46857 6.45688C2.64745 6.59556 1.80425 6.75217 0.996094 6.95202C1.2869 6.73731 1.61428 6.553 1.91951 6.35861L3.75229 5.19114C4.07288 4.98675 4.42428 4.79107 4.71906 4.55142C5.11168 4.23236 5.4352 3.77125 5.76489 3.3845C6.50671 2.51435 7.23251 1.61791 8.0038 0.774414Z" fill="white"/>
<path d="M27.012 25.8545C27.3325 25.9372 27.6562 26.1134 27.9597 26.246L29.7685 27.0332L32.8924 28.3891C33.4547 28.633 34.0382 28.8561 34.5843 29.133C33.3902 29.076 32.1806 29.1137 30.9842 29.1139L24.6334 29.1155L20.2659 29.1131C19.1918 29.1129 18.1145 29.0948 17.041 29.1311C17.4263 28.9696 17.8389 28.8591 18.2361 28.7295L20.366 28.0312L27.012 25.8545Z" fill="white"/>
<path d="M11.8593 2.55957C12.147 2.78085 13.1354 4.07865 13.4276 4.45201C13.3337 5.434 13.1678 6.41826 13.0336 7.39639L12.2948 12.8012L11.7676 16.6851C11.6752 17.3674 11.6184 18.0854 11.4704 18.7565C11.1977 19.0309 10.8916 19.2831 10.6032 19.5416L8.95166 21.0224L4.05648 25.4091L3.16602 26.2179C3.59269 25.29 3.90416 24.2791 4.25496 23.3183L6.11843 18.2327L11.8593 2.55957Z" fill="white"/>
<path d="M45.6547 14.3509C45.6918 14.3447 45.7227 14.3486 45.76 14.3518C45.7279 14.4751 45.119 14.7073 44.9868 14.7687L20.1193 26.4014L14.1365 29.198L12.5948 29.9175C12.2533 30.0773 11.8455 30.2262 11.547 30.4562C11.3061 30.1593 10.9906 29.8947 10.7147 29.6291L9.1972 28.1698C8.36483 27.3691 7.54352 26.5531 6.69531 25.7696L13.2235 18.623C14.5217 17.2007 15.8084 15.7651 17.1245 14.3596C18.0376 14.323 18.9613 14.3512 19.8759 14.3512L25.0361 14.3513L38.7491 14.3513C41.0492 14.3514 43.355 14.3864 45.6547 14.3509Z" fill="white"/>
</g>
<defs>
<clipPath id="clip0_1083_12309">
<rect width="46.1498" height="30.3004" fill="white" transform="translate(0.322266 0.518555)"/>
</clipPath>
</defs>
</svg>
