<svg width="70" height="70" viewBox="0 0 70 70" fill="none" xmlns="http://www.w3.org/2000/svg">
<path d="M29.4622 51.1833C29.5313 51.2449 29.6186 51.2822 29.7108 51.2895C29.803 51.2969 29.8952 51.274 29.9731 51.2242C30.0511 51.1744 30.1107 51.1005 30.1429 51.0137C30.175 50.927 30.1779 50.8321 30.1512 50.7435L24.6912 32.0278C24.642 31.8574 24.5416 31.7061 24.4036 31.5945C24.2657 31.483 24.0968 31.4164 23.9199 31.4038C23.0359 31.3388 22.1533 31.2666 21.2722 31.1872L13.9705 30.522C13.8933 30.5145 13.8155 30.5281 13.7454 30.5612C13.6753 30.5944 13.6156 30.646 13.5724 30.7105C13.5293 30.7749 13.5045 30.8499 13.5005 30.9273C13.4966 31.0048 13.5138 31.0819 13.5502 31.1503C17.5 38.5387 23.1875 45.5803 29.4622 51.1833ZM34.8182 55.1397C34.8615 55.2913 34.9915 55.404 35.1497 55.404C35.2264 55.4028 35.3006 55.3763 35.3606 55.3284C35.4205 55.2806 35.463 55.2142 35.4812 55.1397L42.1632 32.2315C42.1831 32.165 42.1867 32.0947 42.1737 32.0265C42.1607 31.9583 42.1316 31.8942 42.0887 31.8396C42.0458 31.7851 41.9904 31.7416 41.9272 31.7129C41.864 31.6842 41.7948 31.6711 41.7255 31.6747C37.3436 31.8622 32.9557 31.8622 28.5739 31.6747C28.5048 31.6712 28.4359 31.6843 28.3729 31.7129C28.3099 31.7415 28.2547 31.7847 28.2118 31.839C28.169 31.8933 28.1398 31.9571 28.1266 32.025C28.1134 32.0929 28.1167 32.163 28.1362 32.2293L34.8182 55.1397ZM40.1482 50.7435C40.0269 51.1552 40.5165 51.4693 40.8372 51.1833C47.1119 45.5782 52.7994 38.5387 56.7492 31.1503C56.7854 31.082 56.8026 31.0052 56.7987 30.9279C56.7949 30.8507 56.7702 30.7759 56.7274 30.7115C56.6845 30.6471 56.6251 30.5955 56.5553 30.5622C56.4855 30.5288 56.408 30.5149 56.331 30.522L49.0294 31.1872C48.1454 31.2666 47.2621 31.3388 46.3795 31.4038C46.2025 31.4164 46.0337 31.483 45.8957 31.5945C45.7578 31.7061 45.6574 31.8574 45.6082 32.0278L40.1482 50.7435ZM56.3852 27.2547C56.4607 27.248 56.5332 27.2217 56.5954 27.1783C56.6576 27.1348 56.7073 27.0759 56.7395 27.0072C56.7718 26.9386 56.7854 26.8626 56.7791 26.7871C56.7728 26.7115 56.7468 26.6389 56.7037 26.5765L49.688 16.404C49.389 15.9708 48.9893 15.6167 48.5232 15.3721C48.0571 15.1275 47.5386 14.9998 47.0122 15H41.6172C41.546 15 41.476 15.0175 41.4132 15.051C41.3504 15.0845 41.2968 15.133 41.2572 15.1921C41.2176 15.2512 41.1932 15.3191 41.186 15.3899C41.1789 15.4607 41.1893 15.5322 41.2164 15.598L46.1065 27.5645C46.176 27.7338 46.2973 27.8767 46.4529 27.9728C46.6086 28.069 46.7907 28.1134 46.9732 28.0997C47.5596 28.0549 48.1468 28.0043 48.7347 27.948L56.3852 27.2547ZM37.6739 15.533C37.6079 15.3749 37.4965 15.2398 37.3538 15.145C37.2111 15.0501 37.0435 14.9996 36.8722 15H33.4272C33.2558 14.9996 33.0882 15.0501 32.9455 15.145C32.8029 15.2398 32.6915 15.3749 32.6255 15.533L27.5165 27.792C27.4901 27.8562 27.4794 27.9257 27.4854 27.9948C27.4915 28.064 27.514 28.1306 27.5512 28.1892C27.5883 28.2478 27.639 28.2967 27.699 28.3316C27.7589 28.3665 27.8264 28.3866 27.8957 28.39C32.7274 28.624 37.572 28.624 42.4059 28.39C42.475 28.3862 42.5422 28.366 42.6019 28.3309C42.6615 28.2958 42.7119 28.247 42.7489 28.1884C42.7858 28.1299 42.8081 28.0633 42.814 27.9943C42.82 27.9254 42.8093 27.856 42.7829 27.792L37.6739 15.533ZM29.083 15.598C29.1101 15.5322 29.1205 15.4607 29.1133 15.3899C29.1062 15.3191 29.0818 15.2512 29.0421 15.1921C29.0025 15.133 28.949 15.0845 28.8862 15.051C28.8234 15.0175 28.7533 15 28.6822 15H23.2872C22.7608 14.9998 22.2423 15.1275 21.7762 15.3721C21.3101 15.6167 20.9103 15.9708 20.6114 16.404L13.5957 26.5765C13.5525 26.6389 13.5265 26.7115 13.5202 26.7871C13.514 26.8626 13.5276 26.9386 13.5599 27.0072C13.5921 27.0759 13.6418 27.1348 13.704 27.1783C13.7661 27.2217 13.8386 27.248 13.9142 27.2547L21.5647 27.948C22.1511 28.0043 22.7383 28.0549 23.3262 28.0997C23.5086 28.1134 23.6908 28.069 23.8464 27.9728C24.0021 27.8767 24.1234 27.7338 24.1929 27.5645L29.083 15.598Z" fill="white"/>
</svg>
