<svg width="70" height="70" viewBox="0 0 70 70" fill="none" xmlns="http://www.w3.org/2000/svg">
<g clip-path="url(#clip0_1081_25767)">
<path d="M53.8611 19.5222C50.5883 18.6474 47.3907 17.5123 44.2989 16.1278C41.2575 14.8084 38.3215 13.2584 35.5167 11.4911L34.7222 11L33.9422 11.5056C31.1373 13.2728 28.2014 14.8229 25.16 16.1422C22.063 17.5225 18.8606 18.6528 15.5833 19.5222L14.5 19.7967V31.8433C14.5 51.1844 34.0433 58.4211 34.2311 58.4933L34.7222 58.6667L35.2133 58.4933C35.4156 58.4933 54.9444 51.1989 54.9444 31.8433V19.7967L53.8611 19.5222ZM47.26 29.1278L31.1256 44.8L21.9967 35.6567C21.6136 35.2736 21.3984 34.754 21.3984 34.2122C21.3984 33.6705 21.6136 33.1509 21.9967 32.7678C22.3798 32.3847 22.8993 32.1695 23.4411 32.1695C23.9829 32.1695 24.5025 32.3847 24.8856 32.7678L31.1689 39.1667L44.4433 26.1667C44.633 25.977 44.8582 25.8265 45.1061 25.7239C45.3539 25.6212 45.6195 25.5684 45.8878 25.5684C46.156 25.5684 46.4217 25.6212 46.6695 25.7239C46.9173 25.8265 47.1425 25.977 47.3322 26.1667C47.5219 26.3564 47.6724 26.5815 47.775 26.8294C47.8777 27.0772 47.9305 27.3429 47.9305 27.6111C47.9305 27.8794 47.8777 28.145 47.775 28.3928C47.6724 28.6407 47.5219 28.8659 47.3322 29.0556L47.26 29.1278Z" fill="white"/>
</g>
<defs>
<clipPath id="clip0_1081_25767">
<rect width="52" height="52" fill="white" transform="translate(9 9)"/>
</clipPath>
</defs>
</svg>
