<svg width="52" height="52" viewBox="0 0 52 52" fill="none" xmlns="http://www.w3.org/2000/svg">
<path fill-rule="evenodd" clip-rule="evenodd" d="M43.3203 26.1152C43.3203 25.5629 43.0125 25.1152 42.6328 25.1152L11.0078 25.1152C10.6281 25.1152 10.3203 25.5629 10.3203 26.1152C10.3203 26.6675 10.6281 27.1152 11.0078 27.1152L42.6328 27.1152C43.0125 27.1152 43.3203 26.6675 43.3203 26.1152Z" fill="white"/>
<path fill-rule="evenodd" clip-rule="evenodd" d="M26.4219 9.73047C26.9742 9.73047 27.4219 10.0383 27.4219 10.418L27.4219 42.043C27.4219 42.4227 26.9742 42.7305 26.4219 42.7305C25.8696 42.7305 25.4219 42.4227 25.4219 42.043L25.4219 10.418C25.4219 10.0383 25.8696 9.73047 26.4219 9.73047Z" fill="white"/>
</svg>
