<svg width="77" height="77" viewBox="0 0 77 77" fill="none" xmlns="http://www.w3.org/2000/svg">
<path d="M12.3958 63.2019L64.7045 70.2185C65.8526 70.3724 66.87 69.4761 66.8538 68.3249L66.0172 9.10261C66.0009 7.95135 64.9586 7.0838 63.8153 7.26974L11.7255 15.7438C10.7989 15.8945 10.1228 16.6965 10.136 17.6296L10.7538 61.3612C10.7669 62.2943 11.4654 63.0771 12.3958 63.2019Z" fill="black"/>
<path d="M10.1638 19.5659C10.1297 17.1502 10.0115 16.0504 12.9743 15.5858L63.8183 7.26947C64.9616 7.08415 66.004 7.95117 66.0203 9.10284L66.1236 16.4176L10.2278 24.0981L10.1638 19.5659Z" fill="#3D639A"/>
<path d="M57.7787 12.4432C57.7989 13.8707 58.6691 15.016 59.7224 15.0013C60.7757 14.9866 61.6133 13.8175 61.5932 12.3899C61.573 10.9623 60.7027 9.81707 59.6494 9.83177C58.596 9.84648 57.7585 11.0156 57.7787 12.4432Z" fill="black"/>
<path d="M49.5834 13.5159C49.6036 14.9435 50.4739 16.0888 51.5272 16.074C52.5805 16.0593 53.4181 14.8902 53.398 13.4627C53.3778 12.0351 52.5075 10.8898 51.4542 10.9045C50.4008 10.9192 49.5632 12.0883 49.5834 13.5159Z" fill="black"/>
<path d="M12.3958 63.2019L64.7045 70.2185C65.8525 70.3724 66.87 69.4761 66.8538 68.3249L66.0172 9.10261C66.0009 7.95135 64.9586 7.0838 63.8153 7.26974L11.7255 15.7438C10.7989 15.8945 10.1228 16.6965 10.136 17.6296L10.7538 61.3612C10.7669 62.2943 11.4654 63.0771 12.3958 63.2019Z" stroke="#3D639A" stroke-width="2" stroke-linecap="round" stroke-linejoin="round"/>
<path d="M52.1538 45.0351L57.6316 45.0216C58.4722 45.0196 59.1582 45.6901 59.1701 46.5256L59.3774 61.1717C59.3902 62.0781 58.6096 62.7955 57.7014 62.712L52.2162 62.2074C51.435 62.1355 50.8341 61.4896 50.8231 60.7099L50.6231 46.5819C50.6111 45.7327 51.2993 45.0372 52.1538 45.0351Z" stroke="#3C6196" stroke-width="2" stroke-miterlimit="10"/>
<path d="M16.332 46.6729L44.2249 47.6198" stroke="#3C6196" stroke-width="2" stroke-linecap="round" stroke-linejoin="round"/>
<path d="M16.4238 53.0796L44.3367 55.4496" stroke="#3C6196" stroke-width="2" stroke-linecap="round" stroke-linejoin="round"/>
<path d="M16.3503 27.1442L57.1821 22.3094C58.0592 22.2055 58.8337 22.8796 58.8462 23.7575L59.0549 38.4775C59.0665 39.2993 58.4019 39.9729 57.5751 39.9774L16.6779 40.198C15.861 40.2024 15.1933 39.5515 15.1818 38.7396L15.0385 28.6337C15.0277 27.8766 15.5939 27.2337 16.3503 27.1442Z" stroke="#3D639A" stroke-width="2" stroke-miterlimit="10"/>
<path d="M15.8098 39.9245L58.2265 22.5773" stroke="#3D639A" stroke-width="2" stroke-miterlimit="10"/>
<path d="M15.5449 27.5029L58.6515 39.511" stroke="#3D639A" stroke-width="2" stroke-miterlimit="10"/>
</svg>
