<svg width="79" height="77" viewBox="0 0 79 77" fill="none" xmlns="http://www.w3.org/2000/svg">
<path d="M7.27852 47.9131H1V54.2033H7.27852V47.9131Z" fill="#3D639A"/>
<path d="M77.0012 47.9121H70.7227V54.2023H77.0012V47.9121Z" fill="#3D639A"/>
<path d="M42.1457 9.5H35.8672V15.7899H42.1457V9.5Z" fill="#3D639A"/>
<path d="M4.13086 48.0811C4.13086 48.0811 4.14246 12.644 39.0063 12.644C73.87 12.644 73.8584 48.0811 73.8584 48.0811" stroke="#3D639A" stroke-width="2" stroke-miterlimit="10"/>
<path d="M4.14113 14.5006C3.11822 14.5006 2.28906 13.6699 2.28906 12.6452C2.28906 11.6203 3.11822 10.7896 4.14113 10.7896C5.16403 10.7896 5.99339 11.6203 5.99339 12.6452C5.99339 13.6699 5.16403 14.5006 4.14113 14.5006Z" fill="#3D639A"/>
<path d="M73.8697 14.5006C72.8467 14.5006 72.0176 13.6699 72.0176 12.6452C72.0176 11.6203 72.8467 10.7896 73.8697 10.7896C74.8926 10.7896 75.7219 11.6203 75.7219 12.6452C75.7219 13.6699 74.8926 14.5006 73.8697 14.5006Z" fill="#3D639A"/>
<path d="M4.14258 12.645H73.8702" stroke="#3D639A" stroke-width="2" stroke-miterlimit="10"/>
<path d="M54.7211 51.0049L46.8329 61.3276C46.6879 61.5174 46.4636 61.6296 46.2252 61.6318L33.3551 61.7514C33.117 61.7537 32.891 61.6459 32.7425 61.4593L24.6438 51.2825C24.2041 50.7299 24.1053 49.9791 24.387 49.331L35.7942 23.1107C35.8811 22.911 36.0773 22.7811 36.2947 22.7791L37.7478 22.7656C38.0523 22.7627 38.3016 23.0077 38.3045 23.3128L38.5119 44.4628C36.8452 44.9846 35.6744 46.6148 35.8479 48.4841C36.0215 50.3545 37.5704 51.8445 39.4428 51.945C41.6669 52.0644 43.498 50.2815 43.4777 48.0831C43.4617 46.353 42.3027 44.9023 40.7262 44.4406L40.5188 23.2928C40.5159 22.9876 40.7605 22.7376 41.0652 22.7348L42.467 22.7217C42.684 22.7197 42.8821 22.8455 42.973 23.043L54.9385 49.0467C55.2342 49.6895 55.1504 50.4432 54.7211 51.0049Z" fill="#3D639A"/>
<path d="M46.1741 68.2983L33.8669 68.4126C33.5166 68.4159 33.2301 68.134 33.2268 67.7829L33.1914 63.9618C33.1882 63.6107 33.4694 63.3235 33.8197 63.3203L46.127 63.2059C46.4774 63.2027 46.7639 63.4845 46.7672 63.8356L46.8026 67.6567C46.8058 68.0078 46.5246 68.295 46.1741 68.2983Z" fill="#3D639A"/>
</svg>
