<svg width="77" height="77" viewBox="0 0 77 77" fill="none" xmlns="http://www.w3.org/2000/svg">
<path d="M30.5801 66.6772H46.7943" stroke="#3D639A" stroke-width="2.15753" stroke-miterlimit="10" stroke-linecap="round"/>
<path d="M30.5801 69.6367H46.7943" stroke="#3D639A" stroke-width="2.15753" stroke-miterlimit="10" stroke-linecap="round"/>
<path d="M34.1367 72.5957H43.2401" stroke="#3D639A" stroke-width="2.15753" stroke-miterlimit="10" stroke-linecap="round"/>
<path d="M55.8095 37.8253C55.8881 41.7002 54.6707 45.2898 52.5588 48.192C49.0101 53.0686 47.2395 55.4643 47.2395 61.4895V61.6565C47.2395 62.7947 46.3137 63.7178 45.172 63.7178H32.1997C31.0577 63.7178 30.1322 62.7947 30.1322 61.6565V61.4069C30.1322 55.2853 28.1063 52.929 24.6052 47.9002C22.6839 45.1405 21.5586 41.7899 21.5586 38.1781C21.5586 28.7476 29.2266 21.1021 38.6851 21.1021C48.0701 21.1021 55.6204 28.4701 55.8095 37.8253Z" stroke="#3D639A" stroke-width="2.15753" stroke-miterlimit="10"/>
<path d="M38.6855 23.6528C39.1154 23.6528 39.5406 23.6716 39.9605 23.7081" stroke="#3D639A" stroke-width="1.72602" stroke-miterlimit="10" stroke-linecap="round"/>
<path d="M43.2383 24.3818C48.7979 26.2252 52.7967 31.3684 52.9219 37.5567" stroke="#3D639A" stroke-width="1.72602" stroke-miterlimit="10" stroke-linecap="round"/>
<path d="M18.9132 16.0415C18.0138 14.9728 15.8162 12.3616 15.5254 12.0161" stroke="#3D639A" stroke-width="2.02376" stroke-linecap="round"/>
<path d="M8.44042 34.0521C7.06241 33.8099 3.6955 33.218 3.25 33.1396" stroke="#3D639A" stroke-width="2.02376" stroke-linecap="round"/>
<path d="M12.0234 54.5625C10.8116 55.2601 7.85075 56.9644 7.45898 57.1899" stroke="#3D639A" stroke-width="2.02376" stroke-linecap="round"/>
<path d="M64.8985 54.6641C66.1103 55.3616 69.0711 57.066 69.4629 57.2915" stroke="#3D639A" stroke-width="2.02376" stroke-linecap="round"/>
<path d="M68.5615 34.1693C69.9395 33.9271 73.3065 33.3352 73.752 33.2568" stroke="#3D639A" stroke-width="2.02376" stroke-linecap="round"/>
<path d="M58.1591 16.1177C59.0585 15.049 61.2561 12.4378 61.5469 12.0923" stroke="#3D639A" stroke-width="2.02376" stroke-linecap="round"/>
<path d="M38.5508 8.95942C38.5508 7.56431 38.5508 4.15561 38.5508 3.70459" stroke="#3D639A" stroke-width="2.02376" stroke-linecap="round"/>
</svg>
